#N canvas 200 172 451 707 12;
#X declare -path Fraise -path moonlib;
#X obj 260 8 pied/pied 1;
#X obj 218 114 send_OSC \$0;
#X obj 9 37 dynamo 1;
#X obj 9 110 dynamo 2;
#X obj 9 183 dynamo 3;
#X obj 9 256 dynamo 4;
#X obj 9 330 dynamo 5;
#X obj 9 403 dynamo 6;
#X obj 9 476 dynamo 7;
#X obj 9 549 dynamo 8;
#X obj 9 622 dynamo 9;
#X obj 8 7 declare -path Fraise -path moonlib;
#X obj 197 176 hsl 170 20 0.01 1 1 1 dynamos-OSC-speed-gain dynamos-OSC-speed-gain dynamos-OSC-speed-gain -2 -10 0 12 #c6ffc7 #000000 #000000 8450 1;
#X obj 373 176 nbx 5 20 -1e+37 1e+37 0 0 dynamos-OSC-speed-gain dynamos-OSC-speed-gain empty 0 -10 0 12 #c6ffc7 #000000 #000000 0 256;
#N canvas 0 0 548 460 guts 0;
#X obj 64 42 loadbang;
#X obj 64 67 metro 1000;
#X obj 35 41 tgl 20 0 empty empty empty 0 -10 0 12 #fcfcfc #000000 #000000 0 1;
#X msg 64 91 1 10 4;
#X obj 64 116 s to_dynamos_fruit;
#X text 113 92 flash time duty;
#X obj 382 49 s dynamos-fruit-enable;
#X obj 382 25 tgl 20 0 empty empty empty 0 -10 0 12 #fcfcfc #000000 #000000 0 1;
#X obj 68 205 r dynamos;
#X obj 68 230 route pos speed, f 37;
#X obj 68 255 route 9;
#X obj 196 256 route 9;
#X obj 68 280 list prepend 1;
#X obj 196 281 list prepend 1;
#X obj 68 307 list prepend pos;
#X obj 196 306 list prepend speed;
#X obj 68 332 list trim;
#X obj 68 357 s dynamos;
#X obj 383 89 r dynamos;
#X obj 383 141 print;
#X obj 383 115 spigot;
#X obj 218 164 r dynamo9-assign;
#X obj 435 115 tgl 20 0 empty empty empty 0 -10 0 12 #fcfcfc #000000 #000000 0 1;
#X obj 218 189 + 1;
#X connect 0 0 1 0;
#X connect 1 0 3 0;
#X connect 2 0 1 0;
#X connect 3 0 4 0;
#X connect 7 0 6 0;
#X connect 8 0 9 0;
#X connect 9 0 10 0;
#X connect 9 1 11 0;
#X connect 10 0 12 0;
#X connect 11 0 13 0;
#X connect 12 0 14 0;
#X connect 13 0 15 0;
#X connect 14 0 16 0;
#X connect 15 0 16 0;
#X connect 16 0 17 0;
#X connect 18 0 20 0;
#X connect 20 0 19 0;
#X connect 21 0 23 0;
#X connect 22 0 20 1;
#X connect 23 0 12 1;
#X connect 23 0 13 1;
#X restore 218 86 pd guts;
#X obj 168 622 cnv 20 200 70 empty empty Dynamo9\ assign 20 12 0 12 #e0e0e0 #404040 0;
#X obj 176 666 hradio 21 1 1 8 dynamo9-assign dynamo9-assign 1__2__3__4__5__6__7__8 5 -10 0 12 #feffc6 #000000 #000000 5;
