#N canvas 679 77 747 470 12;
#X obj 27 29 fruit/fruit 1 dynamo\$1 \$1 fw_dynamo;
#X obj 21 219 cnv 20 150 50 empty \$0-can empty 20 12 0 12 #e8e828 #404040 0;
#X obj 27 116 route 1, f 35;
#X obj 27 166 unpack f f;
#X floatatom 27 230 8 0 0 3 position - - 12;
#X floatatom 95 230 10 0 0 3 speed - - 12;
#X obj 27 141 fruit/decode uint16 int16;
#X obj 27 88 fruit/receive dynamo\$1;
#X obj 371 141 print from_dynamo\$1;
#X obj 269 141 route present;
#X obj 269 169 sel 0 1, f 26;
#X msg 358 194 color 15 22;
#X obj 269 219 s \$0-can;
#X msg 556 120 2 i \$1;
#X obj 559 93 hsl 170 20 0 65535 0 0 empty empty lowpass_freq -2 -10 0 12 #fcfcfc #000000 #000000 0 1;
#X obj 614 120 / 65535;
#X floatatom 614 145 5 0 0 0 - - - 0;
#X obj 533 169 fruit/send2 dynamo\$1;
#X obj 317 83 loadbang;
#X msg 269 194 color 1 22;
#X obj 27 300 list prepend pos \$1;
#X obj 172 300 list prepend speed \$1;
#X obj 27 194 change;
#X obj 94 194 change;
#X obj 27 376 s dynamos;
#X obj 27 346 list trim;
#X obj 533 48 r to_dynamos_fruit;
#X obj 367 323 line~;
#X obj 367 348 osc~;
#X obj 367 401 *~ 0.2;
#X obj 367 426 dac~;
#X msg 367 298 \$1 20;
#X obj 367 375 hip~ 5;
#X obj 27 3 r dynamos-fruit-enable;
#X msg 195 195 0;
#X connect 2 0 6 0;
#X connect 2 1 9 0;
#X connect 3 0 22 0;
#X connect 3 1 23 0;
#X connect 4 0 20 0;
#X connect 5 0 21 0;
#X connect 5 0 31 0;
#X connect 6 0 3 0;
#X connect 7 0 2 0;
#X connect 9 0 10 0;
#X connect 9 0 34 0;
#X connect 9 1 8 0;
#X connect 10 0 19 0;
#X connect 10 1 11 0;
#X connect 11 0 12 0;
#X connect 13 0 17 0;
#X connect 14 0 13 0;
#X connect 14 0 15 0;
#X connect 15 0 16 0;
#X connect 18 0 19 0;
#X connect 19 0 12 0;
#X connect 20 0 25 0;
#X connect 21 0 25 0;
#X connect 22 0 4 0;
#X connect 23 0 5 0;
#X connect 25 0 24 0;
#X connect 26 0 17 0;
#X connect 27 0 28 0;
#X connect 28 0 32 0;
#X connect 29 0 30 0;
#X connect 29 0 30 1;
#X connect 31 0 27 0;
#X connect 32 0 29 0;
#X connect 33 0 0 0;
#X connect 34 0 5 0;
#X coords 0 -1 1 1 152 70 1 20 200;
