#N canvas 528 19 404 404 10;
#X obj 19 341 netsend -b -u;
#X obj 19 168 list prepend send;
#X obj 19 192 list trim;
#X obj 39 263 loadbang;
#X obj 19 365 tgl 15 0 empty empty connected 17 7 0 10 #fcfcfc #000000 #000000 0 1;
#X msg 40 313 disconnect;
#X msg 39 287 connect localhost 8000;
#X obj 19 215 t a a, f 28;
#X obj 19 112 oscformat -f ii /wheelpos;
#X obj 19 39 r dynamos;
#X obj 19 84 route pos speed, f 56;
#X obj 185 113 oscformat -f ii /wheel;
#X connect 0 0 4 0;
#X connect 1 0 2 0;
#X connect 2 0 7 0;
#X connect 3 0 6 0;
#X connect 5 0 0 0;
#X connect 6 0 0 0;
#X connect 7 0 0 0;
#X connect 8 0 1 0;
#X connect 9 0 10 0;
#X connect 10 0 8 0;
#X connect 10 1 11 0;
#X connect 11 0 1 0;
