#N canvas 528 19 521 488 10;
#X obj 19 427 netsend -b -u;
#X obj 19 254 list prepend send;
#X obj 19 278 list trim;
#X obj 39 349 loadbang;
#X obj 19 451 tgl 15 0 empty empty connected 17 7 0 10 #fcfcfc #000000 #000000 0 1;
#X msg 40 399 disconnect;
#X msg 39 373 connect localhost 8000;
#X obj 19 301 t a a, f 28;
#X obj 19 198 oscformat -f ii /wheelpos;
#X obj 19 39 r dynamos;
#X obj 19 84 route pos speed, f 56;
#X obj 185 199 oscformat -f ii /wheel;
#X obj 185 120 unpack f f;
#X obj 242 144 * 1;
#X obj 185 167 pack f f, f 10;
#X obj 257 119 r dynamos-OSC-speed-gain;
#X connect 0 0 4 0;
#X connect 1 0 2 0;
#X connect 2 0 7 0;
#X connect 3 0 6 0;
#X connect 5 0 0 0;
#X connect 6 0 0 0;
#X connect 7 0 0 0;
#X connect 8 0 1 0;
#X connect 9 0 10 0;
#X connect 10 0 8 0;
#X connect 10 1 12 0;
#X connect 11 0 1 0;
#X connect 12 0 14 0;
#X connect 12 1 13 0;
#X connect 13 0 14 1;
#X connect 14 0 11 0;
#X connect 15 0 13 1;
