#N canvas 994 107 565 577 12;
#X obj 40 77 oscparse;
#X obj 40 105 list trim;
#X obj 40 53 netreceive -u -b 8000;
#X listbox 40 159 20 0 0 0 - - - 0;
#X obj 40 130 route wheel;
#X obj 45 517 netsend -u -b;
#X msg 70 484 connect localhost 9000;
#X obj 70 459 loadbang;
#X obj 45 410 list prepend send;
#X obj 45 435 list trim;
#X obj 45 383 oscformat phase;
#X msg 45 359 1 \$1;
#X obj 48 333 hsl 170 20 0 3 0 0 empty empty empty -2 -10 0 12 #fcfcfc #000000 #000000 0 1;
#X obj 196 385 oscformat audioOn;
#X obj 196 358 tgl 20 0 empty empty empty 0 -10 0 12 #00ff04 #000000 #000000 0 1;
#X text 34 23 OSC test receiver for Dynamos;
#X text 38 300 OSC test sender for Dynamos;
#X msg 345 360 1 \$1;
#X obj 345 384 oscformat event;
#X obj 345 335 hradio 20 1 0 8 empty empty empty 0 -10 0 12 #fcfcfc #000000 #000000 0;
#X connect 0 0 1 0;
#X connect 1 0 4 0;
#X connect 2 0 0 0;
#X connect 4 0 3 0;
#X connect 6 0 5 0;
#X connect 7 0 6 0;
#X connect 8 0 9 0;
#X connect 9 0 5 0;
#X connect 10 0 8 0;
#X connect 11 0 10 0;
#X connect 12 0 11 0;
#X connect 13 0 8 0;
#X connect 14 0 13 0;
#X connect 17 0 18 0;
#X connect 18 0 8 0;
#X connect 19 0 17 0;
