#N canvas 1125 152 716 543 10;
#X obj 104 74 analog/parse;
#X floatatom 238 284 5 0 0 3 - - - 16;
#X obj 69 118 route present;
#X obj 14 177 tgl 15 0 empty empty empty 17 7 0 10 #fcfcfc #000000
#000000 0 1;
#X obj 14 197 sel 1;
#X obj 104 99 route 0 1 2 3, f 56;
#X floatatom 238 121 5 0 0 3 - - - 16;
#X floatatom 110 207 5 0 0 3 - - - 16;
#X floatatom 372 202 5 0 0 3 - - - 16;
#X obj 238 149 tgl 60 0 P\$1-haut-snd P\$1-haut-rcv HAUT 3 30 0 24
#fcfcfc #fcfcfc #000000 0 1;
#X obj 238 220 tgl 60 0 P\$1-bas-snd P\$1-bas-rcv BAS 10 30 0 24 #fcfcfc
#fcfcfc #000000 0 1;
#X obj 168 188 tgl 60 0 P\$1-gauche-snd P\$1-gauche-rcv GAUCH 1 30
0 20 #fcfcfc #fcfcfc #000000 0 1;
#X obj 307 188 tgl 60 0 P\$1-droite-snd P\$1-droite-rcv DROIT 1 30
0 20 #fcfcfc #fcfcfc #000000 0 1;
#N canvas 861 226 798 627 process 0;
#X obj 21 13 inlet analogs;
#X text 119 30 bas haut gauche droite;
#X obj 21 147 -, f 5;
#X obj 21 46 route 0 1 2 3, f 26;
#X obj 21 104 pack f f f f, f 25;
#X obj 59 68 t b f;
#X obj 97 69 t b f;
#X obj 135 70 t b f;
#X obj 21 125 unpack f f f f;
#X obj 75 147 -, f 5;
#X obj 78 381 clip -1 1;
#X obj 78 402 i;
#X obj 21 168 pack f f, f 10;
#X obj 21 189 t a a, f 12;
#X obj 90 210 unpack f f;
#X obj 90 232 abs;
#X obj 147 232 abs;
#X obj 21 276 list prepend;
#X obj 21 297 route 0 1, f 13;
#X obj 90 253 <, f 10;
#X msg 21 318 0 \$1;
#X msg 58 318 1 \$2;
#X obj 21 339 unpack f f;
#X obj 21 424 pack f f, f 10;
#X obj 21 445 route 0 1, f 59;
#X msg 21 488 1 0 0 0;
#X msg 74 488 0 0 0 0;
#X msg 127 488 0 1 0 0;
#X msg 249 491 0 0 0 0;
#X msg 196 491 0 0 1 0;
#X msg 302 491 0 0 0 1;
#X obj 21 529 unpack f f f f, f 51;
#X obj 21 550 change;
#X obj 122 550 change;
#X obj 223 549 change;
#X obj 324 549 change;
#X obj 21 466 sel 1 0 -1, f 27;
#X obj 196 469 sel 1 0 -1, f 27;
#X obj 78 360 / 50;
#X obj 299 73 sel 0 1;
#X msg 299 94 color 0 0 22;
#X msg 318 121 color 15 13 22;
#X obj 423 74 sel 0 1;
#X msg 423 95 color 0 0 22;
#X msg 442 122 color 15 13 22;
#X obj 538 75 sel 0 1;
#X msg 538 96 color 0 0 22;
#X msg 557 123 color 15 13 22;
#X obj 662 76 sel 0 1;
#X msg 662 97 color 0 0 22;
#X msg 681 124 color 15 13 22;
#X obj 324 570 s P\$1-droite-rcv;
#X obj 223 570 s P\$1-gauche-rcv;
#X obj 122 571 s P\$1-haut-rcv;
#X obj 21 571 s P\$1-bas-rcv;
#X obj 299 52 r P\$1-bas-snd;
#X obj 423 53 r P\$1-haut-snd;
#X obj 538 54 r P\$1-gauche-snd;
#X obj 662 55 r P\$1-droite-snd;
#X obj 662 154 s P\$1-droite-rcv;
#X obj 538 153 s P\$1-gauche-rcv;
#X obj 423 152 s P\$1-haut-rcv;
#X obj 299 151 s P\$1-bas-rcv;
#X obj 389 223 t a a, f 14;
#X obj 470 244 s snake_\$1_vals;
#X obj 598 242 zeros snake \$1 4;
#X obj 389 244 unpack f f;
#X obj 428 295 tabread snake_\$1_zeros;
#X obj 389 271 t f f f;
#X obj 408 317 tabread snake_\$1_vals;
#X obj 408 338 -;
#X obj 408 359 >, f 6;
#X obj 441 337 r snake_threshold-snd;
#X obj 389 383 pack f f;
#X obj 389 404 route 0 1 2 3;
#X connect 0 0 63 0;
#X connect 2 0 12 0;
#X connect 3 0 4 0;
#X connect 3 1 5 0;
#X connect 3 2 6 0;
#X connect 3 3 7 0;
#X connect 4 0 8 0;
#X connect 5 0 4 0;
#X connect 5 1 4 1;
#X connect 6 0 4 0;
#X connect 6 1 4 2;
#X connect 7 0 4 0;
#X connect 7 1 4 3;
#X connect 8 0 2 0;
#X connect 8 1 2 1;
#X connect 8 2 9 0;
#X connect 8 3 9 1;
#X connect 9 0 12 1;
#X connect 10 0 11 0;
#X connect 11 0 23 1;
#X connect 12 0 13 0;
#X connect 13 0 17 0;
#X connect 13 1 14 0;
#X connect 14 0 15 0;
#X connect 14 1 16 0;
#X connect 15 0 19 0;
#X connect 16 0 19 1;
#X connect 17 0 18 0;
#X connect 18 0 20 0;
#X connect 18 1 21 0;
#X connect 19 0 17 1;
#X connect 20 0 22 0;
#X connect 21 0 22 0;
#X connect 22 0 23 0;
#X connect 22 1 38 0;
#X connect 23 0 24 0;
#X connect 24 0 36 0;
#X connect 24 1 37 0;
#X connect 25 0 31 0;
#X connect 26 0 31 0;
#X connect 27 0 31 0;
#X connect 28 0 31 0;
#X connect 29 0 31 0;
#X connect 30 0 31 0;
#X connect 31 0 32 0;
#X connect 31 1 33 0;
#X connect 31 2 34 0;
#X connect 31 3 35 0;
#X connect 32 0 54 0;
#X connect 33 0 53 0;
#X connect 34 0 52 0;
#X connect 35 0 51 0;
#X connect 36 0 25 0;
#X connect 36 1 26 0;
#X connect 36 2 27 0;
#X connect 37 0 29 0;
#X connect 37 1 28 0;
#X connect 37 2 30 0;
#X connect 38 0 10 0;
#X connect 39 0 40 0;
#X connect 39 1 41 0;
#X connect 40 0 62 0;
#X connect 41 0 62 0;
#X connect 42 0 43 0;
#X connect 42 1 44 0;
#X connect 43 0 61 0;
#X connect 44 0 61 0;
#X connect 45 0 46 0;
#X connect 45 1 47 0;
#X connect 46 0 60 0;
#X connect 47 0 60 0;
#X connect 48 0 49 0;
#X connect 48 1 50 0;
#X connect 49 0 59 0;
#X connect 50 0 59 0;
#X connect 55 0 39 0;
#X connect 56 0 42 0;
#X connect 57 0 45 0;
#X connect 58 0 48 0;
#X connect 63 0 66 0;
#X connect 63 1 64 0;
#X connect 66 0 68 0;
#X connect 67 0 70 1;
#X connect 68 0 73 0;
#X connect 68 1 69 0;
#X connect 68 2 67 0;
#X connect 69 0 70 0;
#X connect 70 0 71 0;
#X connect 71 0 73 1;
#X connect 72 0 71 1;
#X connect 73 0 74 0;
#X connect 74 0 32 0;
#X connect 74 1 33 0;
#X connect 74 2 34 0;
#X connect 74 3 35 0;
#X restore 454 64 pd process;
#X obj 104 37 fruit/receive snake\$1;
#X obj 101 411 fruit/send snake\$1;
#X msg 372 179 set \$1;
#X msg 110 185 set \$1;
#X msg 183 285 set \$1;
#X msg 187 122 set \$1;
#X msg 242 342 0 \$1;
#X msg 281 341 1 \$1;
#X msg 321 341 2 \$1;
#X msg 360 340 3 \$1;
#X obj 295 374 t a;
#X connect 0 0 5 0;
#X connect 0 0 13 0;
#X connect 1 0 20 0;
#X connect 2 0 3 0;
#X connect 3 0 4 0;
#X connect 5 0 18 0;
#X connect 5 1 19 0;
#X connect 5 2 17 0;
#X connect 5 3 16 0;
#X connect 6 0 21 0;
#X connect 7 0 22 0;
#X connect 8 0 23 0;
#X connect 14 0 0 0;
#X connect 14 0 2 0;
#X connect 16 0 8 0;
#X connect 17 0 7 0;
#X connect 18 0 1 0;
#X connect 19 0 6 0;
#X connect 20 0 24 0;
#X connect 21 0 24 0;
#X connect 22 0 24 0;
#X connect 23 0 24 0;
#X connect 24 0 13 0;
#X coords 0 -1 1 1 349 223 1 100 100;
