#N canvas 836 99 796 338 10;
#X obj 21 281 netsend -b -u;
#X obj 21 180 list prepend send;
#X obj 21 204 list trim;
#X obj 177 189 loadbang;
#X obj 21 305 tgl 15 0 empty empty connected 17 7 0 10 -262144 -1 -1
1 1;
#X msg 176 249 disconnect;
#X msg 177 213 connect localhost 8000;
#X obj 21 42 r PA-bas-snd;
#X obj 21 132 oscformat -f i /btn;
#X msg 21 85 1;
#X obj 102 41 r PA-haut-snd;
#X obj 188 40 r PA-gauche-snd;
#X obj 286 39 r PA-droite-snd;
#X msg 102 84 2;
#X msg 188 83 3;
#X msg 286 82 4;
#X obj 388 39 r PB-bas-snd;
#X obj 469 38 r PB-haut-snd;
#X obj 555 37 r PB-gauche-snd;
#X obj 653 36 r PB-droite-snd;
#X msg 388 79 5;
#X msg 469 78 6;
#X msg 555 77 7;
#X msg 653 76 8;
#X obj 21 64 sel 1;
#X obj 102 64 sel 1;
#X obj 188 63 sel 1;
#X obj 286 62 sel 1;
#X obj 388 59 sel 1;
#X obj 469 59 sel 1;
#X obj 555 58 sel 1;
#X obj 653 57 sel 1;
#X connect 0 0 4 0;
#X connect 1 0 2 0;
#X connect 2 0 0 0;
#X connect 3 0 6 0;
#X connect 5 0 0 0;
#X connect 6 0 0 0;
#X connect 7 0 24 0;
#X connect 8 0 1 0;
#X connect 9 0 8 0;
#X connect 10 0 25 0;
#X connect 11 0 26 0;
#X connect 12 0 27 0;
#X connect 13 0 8 0;
#X connect 14 0 8 0;
#X connect 15 0 8 0;
#X connect 16 0 28 0;
#X connect 17 0 29 0;
#X connect 18 0 30 0;
#X connect 19 0 31 0;
#X connect 20 0 8 0;
#X connect 21 0 8 0;
#X connect 22 0 8 0;
#X connect 23 0 8 0;
#X connect 24 0 9 0;
#X connect 25 0 13 0;
#X connect 26 0 14 0;
#X connect 27 0 15 0;
#X connect 28 0 20 0;
#X connect 29 0 21 0;
#X connect 30 0 22 0;
#X connect 31 0 23 0;
