#N canvas 168 235 673 372 10;
#X msg 64 103 0;
#X obj 163 216 i;
#X obj 163 237 change;
#X obj 213 216 i;
#X obj 213 237 change;
#X obj 263 216 i;
#X obj 263 237 change;
#X obj 313 217 i;
#X obj 313 238 change;
#X obj 364 217 i;
#X obj 364 238 change;
#X obj 29 175 b;
#X obj 29 196 del 1000;
#X obj 29 240 pdcontrol;
#X msg 29 217 dir;
#X obj 365 97 pdcontrol;
#X msg 365 74 dir;
#X obj 230 29 loadbang;
#X obj 230 54 t b b, f 23;
#X msg 230 123 0;
#X floatatom 163 260 5 0 0 0 - - - 0;
#X floatatom 213 260 5 0 0 0 - - - 0;
#X floatatom 263 259 5 0 0 0 - - - 0;
#X floatatom 313 259 5 0 0 0 - - - 0;
#X obj 163 196 unpack f f f f f f f f f, f 68;
#X obj 416 218 i;
#X obj 416 239 change;
#X obj 466 218 i;
#X obj 466 239 change;
#X obj 516 219 i;
#X obj 516 240 change;
#X obj 567 219 i;
#X obj 567 240 change;
#X floatatom 364 260 5 0 0 0 - - - 0;
#X floatatom 414 260 5 0 0 0 - - - 0;
#X floatatom 466 261 5 0 0 0 - - - 0;
#X floatatom 517 263 5 0 0 0 - - - 0;
#X floatatom 567 262 5 0 0 0 - - - 0;
#X msg 365 150 read \$1/\$2_zeros.txt;
#X msg 29 285 write \$1/\$2_zeros.txt;
#X obj 542 56 table \$1_\$2_vals \$3;
#X obj 542 36 table \$1_\$2_zeros \$3;
#X obj 365 124 list append \$1_\$2;
#X obj 230 146 array get \$1_\$2_zeros;
#X obj 64 78 r \$1-setzero;
#X obj 64 131 array get \$1_\$2_vals;
#X obj 64 159 array set \$1_\$2_zeros;
#X obj 29 262 list append \$1_\$2;
#X obj 29 308 s \$1_\$2_zeros;
#X obj 365 173 s \$1_\$2_zeros;
#X connect 0 0 11 0;
#X connect 0 0 45 0;
#X connect 1 0 2 0;
#X connect 2 0 20 0;
#X connect 3 0 4 0;
#X connect 4 0 21 0;
#X connect 5 0 6 0;
#X connect 6 0 22 0;
#X connect 7 0 8 0;
#X connect 8 0 23 0;
#X connect 9 0 10 0;
#X connect 10 0 33 0;
#X connect 11 0 12 0;
#X connect 12 0 14 0;
#X connect 13 0 47 0;
#X connect 14 0 13 0;
#X connect 15 0 42 0;
#X connect 16 0 15 0;
#X connect 17 0 18 0;
#X connect 18 0 19 0;
#X connect 18 1 16 0;
#X connect 19 0 43 0;
#X connect 24 0 1 0;
#X connect 24 1 3 0;
#X connect 24 2 5 0;
#X connect 24 3 7 0;
#X connect 24 4 9 0;
#X connect 24 5 25 0;
#X connect 24 6 27 0;
#X connect 24 7 29 0;
#X connect 24 8 31 0;
#X connect 25 0 26 0;
#X connect 26 0 34 0;
#X connect 27 0 28 0;
#X connect 28 0 35 0;
#X connect 29 0 30 0;
#X connect 30 0 36 0;
#X connect 31 0 32 0;
#X connect 32 0 37 0;
#X connect 38 0 49 0;
#X connect 39 0 48 0;
#X connect 42 0 38 0;
#X connect 43 0 24 0;
#X connect 44 0 0 0;
#X connect 45 0 24 0;
#X connect 45 0 46 0;
#X connect 47 0 39 0;
