#N canvas 361 187 498 313 10;
#X declare -path Fraise -stdpath Fraise;
#X obj 16 58 pied/pied 0 41424;
#X obj 179 12 declare -path Fraise -stdpath Fraise;
#X obj 437 56 send_OSC;
#X obj 16 10 cnv 15 150 40 empty empty Trampo 10 20 2 30 #e0e0e0 #404040
0;
#X obj 16 136 fruit/fruit 1 marelle1 11 marelle_fw;
#X obj 257 240 bng 60 250 50 0 marelle-setzero empty ZERO 8 30 0 18
#ff0400 #000000 #faff00;
#X obj 332 240 hsl 150 60 10 100 0 0 marelle_threshold-snd marelle_threshold-rcv
threshold:17 5 30 0 18 #fcfcfc #000000 #000000 0 1;
#X obj 257 54 process marelle1;
#N canvas 108 277 449 570 save_threshold 0;
#X msg 58 103 0 \$1;
#X obj 58 60 i;
#X obj 58 80 change;
#X obj 187 62 del 1000;
#X obj 187 106 pdcontrol;
#X msg 187 83 dir;
#X msg 187 131 write \$1/threshold.txt;
#X obj 50 224 loadbang;
#X msg 113 270 5;
#X msg 26 157 label threshold:\$1;
#X msg 97 315 stop;
#X obj 81 367 pdcontrol;
#X msg 81 344 dir;
#X msg 81 392 read \$1/threshold.txt;
#X msg 65 437 0;
#X obj 50 247 t b b b b b;
#X obj 232 29 table marelle_threstab 1;
#X obj 58 124 s marelle_threstab;
#X obj 26 182 s marelle_threshold-rcv;
#X obj 58 37 r marelle_threshold-snd;
#X obj 187 154 s marelle_threstab;
#X obj 81 415 s marelle_threstab;
#X obj 65 459 tabread marelle_threstab;
#X obj 112 523 s marelle_threshold-rcv;
#X connect 0 0 17 0;
#X connect 1 0 2 0;
#X connect 2 0 0 0;
#X connect 2 0 3 0;
#X connect 2 0 9 0;
#X connect 3 0 5 0;
#X connect 4 0 6 0;
#X connect 5 0 4 0;
#X connect 6 0 20 0;
#X connect 7 0 15 0;
#X connect 8 0 23 0;
#X connect 9 0 18 0;
#X connect 10 0 3 0;
#X connect 11 0 13 0;
#X connect 12 0 11 0;
#X connect 13 0 21 0;
#X connect 14 0 22 0;
#X connect 15 0 10 0;
#X connect 15 1 14 0;
#X connect 15 2 12 0;
#X connect 15 3 10 0;
#X connect 15 4 8 0;
#X connect 19 0 1 0;
#X connect 22 0 23 0;
#X restore 16 188 pd save_threshold;
