#N canvas 68 68 450 300 10;
#N canvas 938 416 635 350 zeros 0;
#X msg 64 103 0;
#X obj 163 216 i;
#X obj 163 237 change;
#X obj 213 216 i;
#X obj 213 237 change;
#X obj 263 216 i;
#X obj 263 237 change;
#X obj 313 217 i;
#X obj 313 238 change;
#X obj 364 217 i;
#X obj 364 238 change;
#X obj 29 175 b;
#X obj 29 196 del 1000;
#X obj 29 240 pdcontrol;
#X msg 29 217 dir;
#X obj 365 97 pdcontrol;
#X msg 365 74 dir;
#X obj 230 29 loadbang;
#X obj 230 54 t b b, f 23;
#X msg 230 123 0;
#X obj 64 78 r marelle-setzero;
#X obj 64 131 array get \$1_vals;
#X obj 64 159 array set \$1_zeros;
#X floatatom 163 260 5 0 0 0 - - - 0;
#X floatatom 213 260 5 0 0 0 - - - 0;
#X floatatom 263 259 5 0 0 0 - - - 0;
#X floatatom 313 259 5 0 0 0 - - - 0;
#X obj 163 196 unpack f f f f f f f f f, f 68;
#X obj 416 218 i;
#X obj 416 239 change;
#X obj 466 218 i;
#X obj 466 239 change;
#X obj 516 219 i;
#X obj 516 240 change;
#X obj 567 219 i;
#X obj 567 240 change;
#X floatatom 364 260 5 0 0 0 - - - 0;
#X floatatom 414 260 5 0 0 0 - - - 0;
#X floatatom 466 261 5 0 0 0 - - - 0;
#X floatatom 517 263 5 0 0 0 - - - 0;
#X floatatom 567 262 5 0 0 0 - - - 0;
#X obj 365 124 list append \$1;
#X msg 365 150 read \$1/\$2_zeros.txt;
#X obj 29 262 list append \$1;
#X msg 29 285 write \$1/\$2_zeros.txt;
#X obj 230 146 array get \$1_zeros;
#X obj 365 173 s \$1_zeros;
#X obj 29 308 s \$1_zeros;
#X connect 0 0 11 0;
#X connect 0 0 21 0;
#X connect 1 0 2 0;
#X connect 2 0 23 0;
#X connect 3 0 4 0;
#X connect 4 0 24 0;
#X connect 5 0 6 0;
#X connect 6 0 25 0;
#X connect 7 0 8 0;
#X connect 8 0 26 0;
#X connect 9 0 10 0;
#X connect 10 0 36 0;
#X connect 11 0 12 0;
#X connect 12 0 14 0;
#X connect 13 0 43 0;
#X connect 14 0 13 0;
#X connect 15 0 41 0;
#X connect 16 0 15 0;
#X connect 17 0 18 0;
#X connect 18 0 19 0;
#X connect 18 1 16 0;
#X connect 19 0 45 0;
#X connect 20 0 0 0;
#X connect 21 0 22 0;
#X connect 21 0 27 0;
#X connect 27 0 1 0;
#X connect 27 1 3 0;
#X connect 27 2 5 0;
#X connect 27 3 7 0;
#X connect 27 4 9 0;
#X connect 27 5 28 0;
#X connect 27 6 30 0;
#X connect 27 7 32 0;
#X connect 27 8 34 0;
#X connect 28 0 29 0;
#X connect 29 0 37 0;
#X connect 30 0 31 0;
#X connect 31 0 38 0;
#X connect 32 0 33 0;
#X connect 33 0 39 0;
#X connect 34 0 35 0;
#X connect 35 0 40 0;
#X connect 41 0 42 0;
#X connect 42 0 46 0;
#X connect 43 0 44 0;
#X connect 44 0 47 0;
#X connect 45 0 27 0;
#X restore 23 152 pd zeros;
#N canvas 1180 161 359 483 process 1;
#X obj 18 330 t b a;
#X obj 18 24 fruit/receive \$1;
#X obj 18 47 analog/parse;
#X obj 18 68 t a a, f 12;
#X obj 18 142 unpack f f;
#X obj 103 97 s \$1_vals;
#X obj 90 119 unpack f f;
#X obj 90 142 tabread \$1_zeros;
#X obj 75 164 -;
#X obj 18 185 pack f f, f 10;
#X obj 18 383 s \$1_updated;
#X obj 45 353 s \$1_ons;
#X obj 18 261 unpack f f;
#X obj 75 282 > 50;
#X obj 18 303 pack f f, f 10;
#X obj 18 213 t a a;
#X obj 45 234 s \$1_diffs;
#X obj 96 261 r marelle_threshold-snd;
#X connect 0 0 10 0;
#X connect 0 1 11 0;
#X connect 1 0 2 0;
#X connect 2 0 3 0;
#X connect 3 0 4 0;
#X connect 3 1 5 0;
#X connect 3 1 6 0;
#X connect 4 0 9 0;
#X connect 4 1 8 0;
#X connect 6 0 7 0;
#X connect 7 0 8 1;
#X connect 8 0 9 1;
#X connect 9 0 15 0;
#X connect 12 0 14 0;
#X connect 12 1 13 0;
#X connect 13 0 14 1;
#X connect 14 0 0 0;
#X connect 15 0 12 0;
#X connect 15 1 16 0;
#X connect 17 0 13 1;
#X restore 23 131 pd process;
#X obj 26 19 table \$1_vals 9;
#X obj 26 39 table \$1_diffs 9;
#X obj 25 58 table \$1_zeros 9;
#X obj 25 78 table \$1_ons 9;
#X obj 206 124 tgl 50 0 \$1-B1-snd \$1-B1-rcv 1 18 25 0 24 #fcfcfc
#000000 #000000 0 1;
#X obj 256 124 tgl 50 0 \$1-B2-snd \$1-B2-rcv 2 18 25 0 24 #fcfcfc
#000000 #000000 0 1;
#X obj 306 124 tgl 50 0 \$1-B3-snd \$1-B3-rcv 3 18 25 0 24 #fcfcfc
#000000 #000000 0 1;
#X obj 206 173 tgl 50 0 \$1-B4-snd \$1-B4-rcv 4 18 25 0 24 #fcfcfc
#000000 #000000 0 1;
#X obj 256 173 tgl 50 0 \$1-B5-snd \$1-B5-rcv 5 18 25 0 24 #fcfcfc
#000000 #000000 0 1;
#X obj 306 173 tgl 50 0 \$1-B6-snd \$1-B6-rcv 6 18 25 0 24 #fcfcfc
#000000 #000000 0 1;
#X obj 206 223 tgl 50 0 \$1-B7-snd \$1-B7-rcv 7 18 25 0 24 #fcfcfc
#000000 #000000 0 1;
#X obj 256 223 tgl 50 0 \$1-B8-snd \$1-B8-rcv 8 18 25 0 24 #fcfcfc
#000000 #000000 0 1;
#X obj 306 223 tgl 50 0 \$1-B9-snd \$1-B9-rcv 9 18 25 0 24 #fcfcfc
#000000 #000000 0 1;
#N canvas 78 496 865 181 gui 0;
#X obj 22 13 r \$1_ons;
#X obj 22 34 route 0 1 2 3 4 5 6 7 8, f 126;
#X obj 22 55 change;
#X obj 22 76 s \$1-B1-rcv;
#X obj 105 55 change;
#X obj 189 57 change;
#X obj 272 57 change;
#X obj 356 58 change;
#X obj 439 58 change;
#X obj 523 60 change;
#X obj 606 60 change;
#X obj 691 58 change;
#X obj 105 76 s \$1-B2-rcv;
#X obj 189 78 s \$1-B3-rcv;
#X obj 272 78 s \$1-B4-rcv;
#X obj 356 79 s \$1-B5-rcv;
#X obj 439 79 s \$1-B6-rcv;
#X obj 523 81 s \$1-B7-rcv;
#X obj 606 81 s \$1-B8-rcv;
#X obj 691 79 s \$1-B9-rcv;
#X connect 0 0 1 0;
#X connect 1 0 2 0;
#X connect 1 1 4 0;
#X connect 1 2 5 0;
#X connect 1 3 6 0;
#X connect 1 4 7 0;
#X connect 1 5 8 0;
#X connect 1 6 9 0;
#X connect 1 7 10 0;
#X connect 1 8 11 0;
#X connect 2 0 3 0;
#X connect 4 0 12 0;
#X connect 5 0 13 0;
#X connect 6 0 14 0;
#X connect 7 0 15 0;
#X connect 8 0 16 0;
#X connect 9 0 17 0;
#X connect 10 0 18 0;
#X connect 11 0 19 0;
#X restore 23 173 pd gui;
#X coords 0 -1 1 1 161 180 1 200 100;
