#N canvas 898 237 656 433 10;
#X obj 159 351 netsend -b -u;
#X obj 159 250 list prepend send;
#X obj 159 274 list trim;
#X obj 315 259 loadbang;
#X obj 159 375 tgl 15 0 empty empty connected 17 7 0 10 -262144 -1
-1 1 1;
#X msg 314 319 disconnect;
#X msg 315 283 connect localhost 8000;
#X obj 38 15 r marelle1-B1-snd;
#X obj 76 35 r marelle1-B2-snd;
#X obj 114 55 r marelle1-B3-snd;
#X obj 231 10 r marelle1-B4-snd;
#X obj 269 28 r marelle1-B5-snd;
#X obj 308 49 r marelle1-B6-snd;
#X obj 422 8 r marelle1-B7-snd;
#X obj 461 29 r marelle1-B8-snd;
#X obj 501 50 r marelle1-B9-snd;
#X msg 38 37 1 \$1;
#X msg 76 57 2 \$1;
#X msg 114 77 3 \$1;
#X msg 231 32 4 \$1;
#X msg 269 50 5 \$1;
#X msg 308 71 6 \$1;
#X msg 422 30 7 \$1;
#X msg 461 51 8 \$1;
#X msg 501 72 9 \$1;
#X obj 159 157 t a;
#X msg 159 178 \$2 \$1;
#X obj 159 199 route 1 0, f 48;
#X obj 159 225 oscformat -f i /btn_on;
#X obj 301 224 oscformat -f i /btn_off;
#X connect 0 0 4 0;
#X connect 1 0 2 0;
#X connect 2 0 0 0;
#X connect 3 0 6 0;
#X connect 5 0 0 0;
#X connect 6 0 0 0;
#X connect 7 0 16 0;
#X connect 8 0 17 0;
#X connect 9 0 18 0;
#X connect 10 0 19 0;
#X connect 11 0 20 0;
#X connect 12 0 21 0;
#X connect 13 0 22 0;
#X connect 14 0 23 0;
#X connect 15 0 24 0;
#X connect 16 0 25 0;
#X connect 17 0 25 0;
#X connect 18 0 25 0;
#X connect 19 0 25 0;
#X connect 20 0 25 0;
#X connect 21 0 25 0;
#X connect 22 0 25 0;
#X connect 23 0 25 0;
#X connect 24 0 25 0;
#X connect 25 0 26 0;
#X connect 26 0 27 0;
#X connect 27 0 28 0;
#X connect 27 1 29 0;
#X connect 28 0 1 0;
#X connect 29 0 1 0;
