#N canvas 530 252 603 371 12;
#X obj 40 77 oscparse;
#X obj 40 181 bng 30 250 50 0 empty empty 1 10 15 0 16 -262130 -1 -1
;
#X obj 40 105 list trim;
#X obj 40 129 route btn;
#X obj 40 54 netreceive -u -b 8000;
#X obj 40 155 sel 1 2 3 4 5 6 7 8 9, f 74;
#X obj 97 180 bng 30 250 50 0 empty empty 2 10 15 0 16 -262130 -1 -1
;
#X obj 154 181 bng 30 250 50 0 empty empty 3 10 15 0 16 -262130 -1
-1;
#X obj 40 226 bng 30 250 50 0 empty empty 4 10 15 0 16 -262130 -1 -1
;
#X obj 96 227 bng 30 250 50 0 empty empty 5 10 15 0 16 -262130 -1 -1
;
#X obj 153 226 bng 30 250 50 0 empty empty 6 10 15 0 16 -262130 -1
-1;
#X obj 40 272 bng 30 250 50 0 empty empty 7 10 15 0 16 -262130 -1 -1
;
#X obj 97 271 bng 30 250 50 0 empty empty 8 10 15 0 16 -262130 -1 -1
;
#X obj 156 271 bng 30 250 50 0 empty empty 9 10 15 0 16 -262130 -1
-1;
#X text 37 23 OSC receiver for testing Marelle;
#X connect 0 0 2 0;
#X connect 2 0 3 0;
#X connect 3 0 5 0;
#X connect 4 0 0 0;
#X connect 5 0 1 0;
#X connect 5 1 6 0;
#X connect 5 2 7 0;
#X connect 5 3 8 0;
#X connect 5 4 9 0;
#X connect 5 5 10 0;
#X connect 5 6 11 0;
#X connect 5 7 12 0;
#X connect 5 8 13 0;
