#N canvas 578 608 855 393 10;
#X msg 47 189 pd~ stop;
#X obj 228 120 loadbang;
#X msg 228 165 pd~ start -nogui \$1.pd;
#X obj 22 42 bng 15 250 50 0 empty empty GUI 17 7 0 10 -4034 -1 -1
;
#X msg 113 165 pd~ start \$1.pd;
#X obj 228 141 symbol \$1;
#X obj 113 141 symbol \$1;
#X obj 315 254 outlet~;
#X obj 188 289 outlet;
#X obj 113 251 route _loaded;
#X obj 113 272 b;
#X obj 259 61 f;
#X obj 62 42 bng 15 250 50 0 empty empty noGUI 17 7 0 10 -257985 -1
-1;
#X obj 381 164 inlet;
#X obj 259 18 r /GAMME;
#X msg 259 87 /GAMME \$1;
#X obj 354 58 f;
#X msg 354 84 /GAM2 \$1;
#X obj 113 230 pd~ -ninsig 1 -noutsig 1, f 34;
#X obj 435 165 inlet~;
#X obj 354 20 r /GAM2;
#X obj 113 314 s \$0-resend;
#X obj 267 38 r \$0-resend;
#X obj 366 39 r \$0-resend;
#X obj 440 58 f;
#X obj 452 39 r \$0-resend;
#X msg 440 84 mix-SynthMono \$1;
#X obj 564 59 f;
#X obj 576 40 r \$0-resend;
#X msg 564 85 mix-Nappe \$1;
#X obj 82 288 bng 15 250 50 0 empty empty empty 17 7 0 10 -262144 -1
-1;
#X obj 113 293 del 10;
#X obj 440 20 r mix-SynthMono-snd;
#X obj 564 21 r mix-Nappe-snd;
#X obj 678 22 r impact_seuil-snd;
#X obj 678 62 f;
#X obj 690 43 r \$0-resend;
#X msg 678 88 ImpactSeuil \$1;
#X connect 0 0 18 0;
#X connect 1 0 5 0;
#X connect 2 0 18 0;
#X connect 3 0 6 0;
#X connect 4 0 18 0;
#X connect 5 0 2 0;
#X connect 6 0 4 0;
#X connect 9 0 10 0;
#X connect 10 0 31 0;
#X connect 11 0 15 0;
#X connect 12 0 5 0;
#X connect 13 0 18 0;
#X connect 14 0 11 0;
#X connect 15 0 18 0;
#X connect 16 0 17 0;
#X connect 17 0 18 0;
#X connect 18 0 9 0;
#X connect 18 0 8 0;
#X connect 18 1 7 0;
#X connect 19 0 18 0;
#X connect 20 0 16 0;
#X connect 22 0 11 0;
#X connect 23 0 16 0;
#X connect 24 0 26 0;
#X connect 25 0 24 0;
#X connect 26 0 18 0;
#X connect 27 0 29 0;
#X connect 28 0 27 0;
#X connect 29 0 18 0;
#X connect 30 0 21 0;
#X connect 31 0 21 0;
#X connect 32 0 24 0;
#X connect 33 0 27 0;
#X connect 34 0 35 0;
#X connect 35 0 37 0;
#X connect 36 0 35 0;
#X connect 37 0 18 0;
#X coords 0 -1 1 1 90 40 1 20 20;
