#N canvas 124 124 1501 488 10;
#X obj 652 433 netsend -b -u;
#X obj 652 332 list prepend send;
#X obj 652 356 list trim;
#X obj 808 341 loadbang;
#X obj 652 457 tgl 15 0 empty empty connected 17 7 0 10 -262144 -1
-1 1 1;
#X msg 807 401 disconnect;
#X msg 808 365 connect localhost 8000;
#X obj 21 17 r mic1-justesse-snd;
#X obj 144 17 r mic1-force-snd;
#X obj 1163 14 r mic3-force-snd;
#X obj 1040 15 r mic3-justesse-snd;
#X obj 606 18 r mic2-force-snd;
#X obj 483 18 r mic2-justesse-snd;
#X obj 252 17 r mic1-impact-snd;
#X obj 714 18 r mic2-impact-snd;
#X obj 1271 13 r mic3-impact-snd;
#X obj 21 102 oscformat -f f /layer3/clip1/video/anchory/values;
#X obj 144 60 / 100;
#X obj 144 79 oscformat -f f /layer3/clip1/link1/values;
#X msg 252 38 1;
#X obj 606 57 / 100;
#X obj 252 60 oscformat -f i /layer1/clip1/preview;
#X obj 714 57 oscformat -f i /layer4/clip1/video/anchory/direction
;
#X msg 714 37 1;
#X obj 483 99 oscformat -f f /layer6/clip1/video/anchory/values;
#X obj 606 76 oscformat -f f /layer6/clip1/link1/values;
#X obj 1163 69 / 100;
#X msg 1271 49 1;
#X obj 1040 111 oscformat -f f /layer9/clip1/video/anchory/values;
#X obj 1163 88 oscformat -f f /layer9/clip1/link1/values;
#X obj 1271 69 oscformat -f i /layer7/clip1/preview;
#X obj 21 80 mapval 0 100 330 0;
#X obj 483 77 mapval 0 100 330 0;
#X obj 1040 89 mapval 0 100 330 0;
#X connect 0 0 4 0;
#X connect 1 0 2 0;
#X connect 2 0 0 0;
#X connect 3 0 6 0;
#X connect 5 0 0 0;
#X connect 6 0 0 0;
#X connect 7 0 31 0;
#X connect 8 0 17 0;
#X connect 9 0 26 0;
#X connect 10 0 33 0;
#X connect 11 0 20 0;
#X connect 12 0 32 0;
#X connect 13 0 19 0;
#X connect 14 0 23 0;
#X connect 15 0 27 0;
#X connect 16 0 1 0;
#X connect 17 0 18 0;
#X connect 18 0 1 0;
#X connect 19 0 21 0;
#X connect 20 0 25 0;
#X connect 21 0 1 0;
#X connect 22 0 1 0;
#X connect 23 0 22 0;
#X connect 24 0 1 0;
#X connect 25 0 1 0;
#X connect 26 0 29 0;
#X connect 27 0 30 0;
#X connect 28 0 1 0;
#X connect 29 0 1 0;
#X connect 30 0 1 0;
#X connect 31 0 16 0;
#X connect 32 0 24 0;
#X connect 33 0 28 0;
