#N canvas 693 252 723 569 10;
#X obj 21 498 netsend -b -u;
#X obj 21 397 list prepend send;
#X obj 21 421 list trim;
#X obj 177 406 loadbang;
#X obj 21 522 tgl 15 0 empty empty connected 17 7 0 10 -262144 -1 -1
1 1;
#X msg 176 466 disconnect;
#X msg 177 430 connect localhost 8000;
#X obj 21 17 r mic1-justesse-snd;
#X obj 144 17 r mic1-force-snd;
#X obj 284 241 r mic3-force-snd;
#X obj 161 242 r mic3-justesse-snd;
#X obj 219 129 r mic2-force-snd;
#X obj 96 129 r mic2-justesse-snd;
#X obj 252 17 r mic1-impact-snd;
#X obj 327 129 r mic2-impact-snd;
#X obj 392 240 r mic3-impact-snd;
#X obj 144 60 / 100;
#X msg 252 38 1;
#X obj 219 168 / 100;
#X msg 327 148 1;
#X obj 284 296 / 100;
#X msg 392 276 1;
#X obj 21 80 / 100;
#X obj 96 188 / 100;
#X obj 161 316 / 100;
#X obj 144 79 oscformat -f f /composition/layers/9/clips/1/dashboard/link1
;
#X obj 21 102 oscformat -f f /composition/layers/8/clips/1/dashboard/link2
;
#X obj 252 60 oscformat -f f /composition/layers/7/clips/1/select;
#X obj 219 187 oscformat -f f /composition/layers/6/clips/1/dashboard/link1
;
#X obj 96 210 oscformat -f f /composition/layers/5/clips/1/dashboard/link2
;
#X obj 327 168 oscformat -f f /composition/layers/4/clips/1/select
;
#X obj 284 315 oscformat -f f /composition/layers/3/clips/1/dashboard/link1
;
#X obj 161 338 oscformat -f f /composition/layers/2/clips/1/dashboard/link2
;
#X obj 392 296 oscformat -f f /composition/layers/1/clips/1/select
;
#X connect 0 0 4 0;
#X connect 1 0 2 0;
#X connect 2 0 0 0;
#X connect 3 0 6 0;
#X connect 5 0 0 0;
#X connect 6 0 0 0;
#X connect 7 0 22 0;
#X connect 8 0 16 0;
#X connect 9 0 20 0;
#X connect 10 0 24 0;
#X connect 11 0 18 0;
#X connect 12 0 23 0;
#X connect 13 0 17 0;
#X connect 14 0 19 0;
#X connect 15 0 21 0;
#X connect 16 0 25 0;
#X connect 17 0 27 0;
#X connect 18 0 28 0;
#X connect 19 0 30 0;
#X connect 20 0 31 0;
#X connect 21 0 33 0;
#X connect 22 0 26 0;
#X connect 23 0 29 0;
#X connect 24 0 32 0;
#X connect 25 0 1 0;
#X connect 26 0 1 0;
#X connect 27 0 1 0;
#X connect 28 0 1 0;
#X connect 29 0 1 0;
#X connect 30 0 1 0;
#X connect 31 0 1 0;
#X connect 32 0 1 0;
#X connect 33 0 1 0;
