#N canvas 124 124 770 417 10;
#X obj 21 281 netsend -b -u;
#X obj 21 180 list prepend send;
#X obj 21 204 list trim;
#X obj 177 189 loadbang;
#X obj 21 305 tgl 15 0 empty empty connected 17 7 0 10 -262144 -1 -1
1 1;
#X msg 176 249 disconnect;
#X msg 177 213 connect localhost 8000;
#X obj 21 132 oscformat /btn1;
#X obj 120 133 oscformat /btn2;
#X obj 220 134 oscformat /btn3;
#X obj 320 135 oscformat /btn4;
#X obj 420 135 oscformat /btn5;
#X obj 23 31 r mic1-justesse-snd;
#X obj 91 55 r mic1-force-snd;
#X obj 499 56 r mic3-force-snd;
#X obj 431 32 r mic3-justesse-snd;
#X obj 295 55 r mic2-force-snd;
#X obj 227 30 r mic2-justesse-snd;
#X connect 0 0 4 0;
#X connect 1 0 2 0;
#X connect 2 0 0 0;
#X connect 3 0 6 0;
#X connect 5 0 0 0;
#X connect 6 0 0 0;
#X connect 7 0 1 0;
#X connect 8 0 1 0;
#X connect 9 0 1 0;
#X connect 10 0 1 0;
#X connect 11 0 1 0;
