#N canvas 974 21 891 794 12;
#X obj 28 66 hsl 170 20 0 1 0 0 \$0-vol-snd \$0-vol-rcv volume:83 5 10 0 12 #dfdfdf #7c7c7c #000000 0 1;
#X obj 70 49 hradio 15 1 0 10 \$0-outchan-snd \$0-outchan-rcv out:1 -45 7 0 12 #fcfcfc #000000 #000000 0;
#X obj 145 23 hsl 170 20 0 3 0 0 \$0-phase-snd \$0-phase-rcv phase:0 5 10 0 12 #fcfcfc #9f9f9f #000000 0 1;
#X obj 10 99 apf dynconfig \$1-vol \$0-vol 2;
#X obj 10 125 apf dynconfig \$1-outchan \$0-outchan 2;
#X obj 592 19 r \$0-outchan-snd;
#X obj 592 44 + 1;
#X msg 592 69 label out:\$1;
#X obj 592 94 s \$0-outchan-rcv;
#X obj 434 19 r dynamos-from-OSC;
#X obj 434 73 route \$1;
#X obj 434 98 s \$0-phase-rcv;
#X obj 434 46 route phase;
#X obj 592 128 r \$0-phase-snd;
#X obj 592 280 s \$0-phase-rcv;
#X msg 592 255 label phase:\$1;
#X obj 592 152 * 100;
#X obj 592 179 i;
#X obj 592 204 / 100;
#X obj 434 140 r dynamos;
#X obj 434 165 route speed;
#X obj 434 190 route \$1;
#X obj 434 215 s \$0-speed;
#X obj 23 192 wavfile \$0 \$1 manivelle;
#X obj 23 217 wavfile \$0 \$1 vidange;
#N canvas 324 205 949 702 vidange 0;
#X obj 42 523 tabplay~ \$0-vidange;
#X obj 42 662 outlet~;
#X obj 50 496 bng 20 250 50 0 empty empty empty 0 -10 0 12 #fcfcfc #000000 #000000;
#X listbox 228 70 20 0 0 0 - - - 0;
#X obj 228 45 r \$0-vidange-marks;
#X obj 228 94 unpack f f;
#X obj 382 42 r \$0-vidange-samplerate;
#X floatatom 382 67 9 0 0 0 - - - 0;
#X obj 228 119 *;
#X obj 295 118 *;
#X listbox 228 169 27 0 0 0 - - - 0;
#X obj 42 36 tgl 20 0 empty empty empty 0 -10 0 12 #fcfcfc #000000 #000000 0 1;
#X obj 42 69 sel 1 0, f 12;
#X obj 41 574 *~;
#X obj 185 523 tabplay~ \$0-vidange;
#X obj 184 574 *~;
#X obj 219 551 *~ -1;
#X obj 219 576 +~ 1;
#X obj 74 462 line~;
#X obj 42 305 t b a, f 11;
#X obj 42 330 f;
#X obj 72 330 == 0;
#X obj 42 355 list append;
#X obj 42 380 t a a;
#X obj 42 405 route 1 0, f 24;
#X obj 12 360 tgl 20 0 empty empty empty 0 -10 0 12 #fcfcfc #000000 #000000 0 1;
#X floatatom 552 67 17 0 0 0 - - - 0;
#X obj 228 144 pack f f f, f 19;
#X obj 552 42 r \$0-vidange-len;
#X msg 42 246 0 \$2 1;
#X obj 275 307 unpack f f f;
#X obj 275 332 * -1;
#X obj 275 357 +, f 6;
#X obj 275 434 *, f 11;
#X msg 95 247 \$1 \$2 1;
#X msg 155 248 \$2 \$3 0;
#X obj 42 208 list;
#X obj 155 214 list;
#X obj 275 459 sel 0;
#X obj 307 484 del;
#X msg 322 459 stop;
#X obj 42 277 t a a b, f 67;
#X obj 95 214 list;
#X floatatom 232 460 5 0 0 0 - - - 0;
#X obj 275 382 / 48;
#X msg 74 436 \$1 1000;
#X obj 275 408 - 1200;
#X obj 585 201 f, f 11;
#X obj 585 148 tgl 20 0 empty empty empty 0 -10 0 12 #fcfcfc #000000 #000000 0 1;
#X obj 585 118 loadbang;
#X obj 585 176 metro 50;
#X obj 585 253 t f f;
#X obj 586 280 -;
#X obj 659 176 r \$0-phase-snd;
#X obj 586 440 +;
#X obj 586 465 t f f, f 7;
#X obj 719 466 vsl 20 170 -3 3 0 0 empty empty empty 0 -9 0 12 #fcfcfc #000000 #000000 0 1;
#X obj 586 388 -;
#X obj 586 413 * 0.1;
#X obj 586 528 change;
#X obj 586 557 tgl 20 0 empty empty empty 0 -10 0 12 #fcfcfc #000000 #000000 0 1;
#X obj 762 123 s \$0-phase-rcv;
#X obj 774 79 line;
#X msg 729 15 stop;
#X msg 774 54 3 \, 0 30000;
#X obj 694 306 > 0.2;
#X obj 620 332 *, f 11;
#X obj 586 362 f;
#X obj 650 527 change;
#X obj 586 306 * 20;
#X obj 586 500 < -0.001;
#X obj 650 552 sel 1;
#X obj 650 501 > 0.005;
#X msg 220 247 0 1 0;
#X obj 647 575 del 500;
#X obj 553 589 sel 1;
#X msg 553 614 stop;
#X obj 42 637 hip~ 50;
#X obj 585 227 clip 0.5 2.5;
#X connect 0 0 13 0;
#X connect 2 0 0 0;
#X connect 3 0 5 0;
#X connect 4 0 3 0;
#X connect 5 0 8 0;
#X connect 5 1 9 0;
#X connect 6 0 7 0;
#X connect 6 0 8 1;
#X connect 6 0 9 1;
#X connect 8 0 27 0;
#X connect 9 0 27 1;
#X connect 11 0 12 0;
#X connect 12 0 36 0;
#X connect 12 1 37 0;
#X connect 13 0 77 0;
#X connect 14 0 15 0;
#X connect 15 0 77 0;
#X connect 16 0 17 0;
#X connect 17 0 15 1;
#X connect 18 0 13 1;
#X connect 18 0 16 0;
#X connect 19 0 20 0;
#X connect 19 1 22 1;
#X connect 20 0 21 0;
#X connect 20 0 22 0;
#X connect 20 0 25 0;
#X connect 21 0 20 1;
#X connect 22 0 23 0;
#X connect 23 0 24 0;
#X connect 23 1 45 0;
#X connect 24 0 0 0;
#X connect 24 1 14 0;
#X connect 27 0 10 0;
#X connect 27 0 36 1;
#X connect 27 0 37 1;
#X connect 27 0 42 1;
#X connect 28 0 26 0;
#X connect 28 0 27 2;
#X connect 29 0 41 0;
#X connect 30 0 31 0;
#X connect 30 1 32 1;
#X connect 30 2 33 1;
#X connect 31 0 32 0;
#X connect 32 0 44 0;
#X connect 33 0 38 0;
#X connect 33 0 43 0;
#X connect 34 0 41 0;
#X connect 35 0 41 0;
#X connect 36 0 29 0;
#X connect 37 0 35 0;
#X connect 38 1 39 0;
#X connect 39 0 42 0;
#X connect 40 0 39 0;
#X connect 41 0 19 0;
#X connect 41 1 30 0;
#X connect 41 2 40 0;
#X connect 42 0 34 0;
#X connect 44 0 46 0;
#X connect 45 0 18 0;
#X connect 46 0 33 0;
#X connect 47 0 78 0;
#X connect 48 0 50 0;
#X connect 49 0 48 0;
#X connect 50 0 47 0;
#X connect 51 0 52 1;
#X connect 51 1 52 0;
#X connect 52 0 69 0;
#X connect 53 0 47 1;
#X connect 53 0 65 0;
#X connect 54 0 55 0;
#X connect 55 0 56 0;
#X connect 55 0 70 0;
#X connect 55 0 72 0;
#X connect 55 1 54 1;
#X connect 55 1 57 1;
#X connect 57 0 58 0;
#X connect 58 0 54 0;
#X connect 59 0 60 0;
#X connect 59 0 75 0;
#X connect 60 0 11 0;
#X connect 62 0 61 0;
#X connect 63 0 62 0;
#X connect 64 0 62 0;
#X connect 65 0 66 1;
#X connect 67 0 57 0;
#X connect 68 0 71 0;
#X connect 69 0 67 0;
#X connect 70 0 59 0;
#X connect 71 0 74 0;
#X connect 72 0 68 0;
#X connect 73 0 41 0;
#X connect 74 0 73 0;
#X connect 75 0 76 0;
#X connect 76 0 74 0;
#X connect 77 0 1 0;
#X connect 78 0 51 0;
#X restore 24 276 pd vidange;
#N canvas 106 185 401 592 manivelle 0;
#X obj 46 397 tabread4~ \$0-manivelle;
#X obj 118 232 r \$0-manivelle-len;
#X obj 45 210 / 500;
#X obj 45 260 /;
#X obj 45 341 phasor~;
#X obj 45 366 *~;
#X floatatom 118 257 17 0 0 0 - - - 0;
#X obj 45 235 * 48000;
#X obj 45 310 line~;
#X obj 45 489 hip~ 400;
#X obj 45 464 hip~ 200;
#X msg 45 285 \$1 200;
#X obj 45 30 r \$0-speed;
#X obj 44 539 outlet~;
#X obj 45 431 *~;
#X obj 149 315 > 50;
#X obj 149 340 lop~ 1;
#X obj 149 365 lop~ 1;
#X obj 149 291 abs;
#X obj 45 111 list prepend 0;
#X obj 45 139 route 0 1;
#X obj 75 167 abs;
#X obj 45 86 f;
#X obj 108 86 t b f;
#X obj 108 61 r dynamo-manivelle-force-forward-snd;
#X connect 0 0 14 0;
#X connect 1 0 3 1;
#X connect 1 0 5 1;
#X connect 1 0 6 0;
#X connect 2 0 7 0;
#X connect 3 0 11 0;
#X connect 4 0 5 0;
#X connect 5 0 0 0;
#X connect 7 0 3 0;
#X connect 8 0 4 0;
#X connect 9 0 13 0;
#X connect 10 0 9 0;
#X connect 11 0 8 0;
#X connect 12 0 18 0;
#X connect 12 0 22 0;
#X connect 14 0 10 0;
#X connect 15 0 16 0;
#X connect 16 0 17 0;
#X connect 17 0 14 1;
#X connect 18 0 15 0;
#X connect 19 0 20 0;
#X connect 20 0 2 0;
#X connect 20 1 21 0;
#X connect 21 0 2 0;
#X connect 22 0 19 0;
#X connect 23 0 22 0;
#X connect 23 1 19 1;
#X connect 24 0 23 0;
#X restore 48 306 pd manivelle;
#N canvas 191 210 631 705 boule 0;
#X obj 45 267 / 500;
#X obj 45 317 /, f 8;
#X obj 46 462 phasor~;
#X obj 46 487 *~;
#X floatatom 118 314 17 0 0 0 - - - 0;
#X obj 45 292 * 48000;
#X obj 45 367 line~;
#X msg 45 342 \$1 200;
#X obj 45 30 r \$0-speed;
#X obj 46 616 outlet~;
#X obj 118 289 r \$0-boule-len;
#X obj 47 518 tabread4~ \$0-boule;
#X obj 148 20 r \$0-phase-snd;
#X obj 148 45 - 1;
#X obj 148 71 clip 0 1;
#X obj 46 586 hip~ 80;
#X obj 45 399 lop~ 1;
#X obj 45 431 lop~ 1;
#X obj 47 555 *~, f 10;
#X obj 114 438 > 50;
#X obj 114 463 lop~ 1;
#X obj 114 488 lop~ 1;
#X obj 45 66 *;
#X obj 74 65 t b f;
#X obj 148 96 change;
#X obj 114 412 abs;
#X obj 108 128 r dynamo-boule-force-forward-snd;
#X obj 45 178 list prepend 0;
#X obj 45 206 route 0 1;
#X obj 75 234 abs;
#X obj 45 153 f;
#X obj 108 153 t b f;
#X connect 0 0 5 0;
#X connect 1 0 7 0;
#X connect 2 0 3 0;
#X connect 3 0 11 0;
#X connect 5 0 1 0;
#X connect 6 0 16 0;
#X connect 7 0 6 0;
#X connect 8 0 22 0;
#X connect 8 0 25 0;
#X connect 10 0 1 1;
#X connect 10 0 3 1;
#X connect 10 0 4 0;
#X connect 11 0 18 0;
#X connect 12 0 13 0;
#X connect 13 0 14 0;
#X connect 14 0 24 0;
#X connect 15 0 9 0;
#X connect 16 0 17 0;
#X connect 17 0 2 0;
#X connect 18 0 15 0;
#X connect 19 0 20 0;
#X connect 20 0 21 0;
#X connect 21 0 18 1;
#X connect 22 0 30 0;
#X connect 23 0 22 0;
#X connect 23 1 22 1;
#X connect 24 0 23 0;
#X connect 25 0 19 0;
#X connect 26 0 31 0;
#X connect 27 0 28 0;
#X connect 28 0 0 0;
#X connect 28 1 29 0;
#X connect 29 0 0 0;
#X connect 30 0 27 0;
#X connect 31 0 30 0;
#X connect 31 1 27 1;
#X restore 90 335 pd boule;
#X obj 23 242 wavfile \$0 \$1 boule;
#X obj 396 273 tgl 20 0 empty empty speed->phase_simulator 0 -10 0 12 #fcfcfc #000000 #000000 0 1;
#X obj 70 405 bp~ 3000 4;
#X obj 153 374 *~ 0.8;
#X obj 24 703 throw~;
#X obj 49 611 r \$0-outchan-snd;
#X obj 49 636 + 1;
#X obj 25 579 *~, f 27;
#X obj 730 18 r \$0-vol-snd;
#X obj 730 43 * 100;
#X obj 730 67 i;
#X obj 730 91 change;
#X obj 730 139 s \$0-vol-rcv;
#X msg 730 114 label volume:\$1;
#X obj 210 500 r \$0-vol-snd;
#X obj 210 525 pow 2;
#X obj 210 550 lop~ 10;
#X msg 49 661 set dynout\$1;
#X obj 95 460 rev3~ 100 85 3000 40;
#X obj 70 377 *~ 0.6;
#X obj 243 400 hip~ 2000;
#X obj 153 402 bp~ 400 1;
#X obj 624 178 loadbang;
#X obj 592 230 change -1;
#N canvas 0 0 340 263 speed->phase_simulator 0;
#X obj 32 63 metro 10;
#X obj 106 17 r \$0-speed;
#X obj 32 145 +;
#X obj 32 170 clip 0 3;
#X obj 106 43 abs;
#X obj 32 92 f, f 11;
#X obj 32 119 - 0.002;
#X obj 106 68 / 100000;
#X obj 32 226 s \$0-phase-rcv;
#X obj 32 198 change;
#X obj 32 18 inlet;
#X connect 0 0 5 0;
#X connect 1 0 4 0;
#X connect 2 0 3 0;
#X connect 3 0 2 1;
#X connect 3 0 9 0;
#X connect 4 0 7 0;
#X connect 5 0 6 0;
#X connect 6 0 2 0;
#X connect 7 0 5 1;
#X connect 9 0 8 0;
#X connect 10 0 0 0;
#X restore 396 297 pd speed->phase_simulator;
#X obj 235 66 hsl 100 20 0 1 0 0 \$0-pan-snd \$0-pan-rcv main_pan:0 0 10 0 12 #bbbbbb #ffffff #000000 0 1;
#X obj 159 662 r~ dynambiance;
#X obj 302 708 throw~ dynmainL;
#X obj 416 707 throw~ dynmainR;
#X obj 10 151 apf dynconfig \$1-pan \$0-pan 2;
#X obj 731 246 i;
#X obj 731 270 change;
#X obj 731 165 r \$0-pan-snd;
#X obj 731 318 s \$0-pan-rcv;
#X obj 319 556 r \$0-pan-snd;
#X obj 301 682 *~;
#X obj 416 682 *~;
#X obj 319 581 * -1;
#X obj 319 606 + 1;
#X obj 319 630 sqrt;
#X obj 435 630 sqrt;
#X obj 435 655 lop~ 10;
#X obj 319 655 lop~ 10;
#X obj 731 190 * 20;
#X obj 731 218 - 10;
#X msg 731 293 label main_pan:\$1;
#X connect 5 0 6 0;
#X connect 6 0 7 0;
#X connect 7 0 8 0;
#X connect 9 0 12 0;
#X connect 10 0 11 0;
#X connect 12 0 10 0;
#X connect 13 0 16 0;
#X connect 15 0 14 0;
#X connect 16 0 17 0;
#X connect 17 0 18 0;
#X connect 18 0 51 0;
#X connect 19 0 20 0;
#X connect 20 0 21 0;
#X connect 21 0 22 0;
#X connect 25 0 35 0;
#X connect 25 0 48 0;
#X connect 26 0 35 0;
#X connect 26 0 47 0;
#X connect 27 0 31 0;
#X connect 27 0 35 0;
#X connect 29 0 52 0;
#X connect 30 0 46 0;
#X connect 31 0 49 0;
#X connect 33 0 34 0;
#X connect 34 0 45 0;
#X connect 35 0 32 0;
#X connect 35 0 63 0;
#X connect 35 0 64 0;
#X connect 36 0 37 0;
#X connect 37 0 38 0;
#X connect 38 0 39 0;
#X connect 39 0 41 0;
#X connect 41 0 40 0;
#X connect 42 0 43 0;
#X connect 43 0 44 0;
#X connect 44 0 35 1;
#X connect 45 0 32 0;
#X connect 46 0 35 0;
#X connect 46 1 35 0;
#X connect 47 0 30 0;
#X connect 48 0 46 0;
#X connect 49 0 46 1;
#X connect 50 0 17 0;
#X connect 51 0 15 0;
#X connect 54 0 32 0;
#X connect 58 0 59 0;
#X connect 59 0 73 0;
#X connect 60 0 71 0;
#X connect 62 0 65 0;
#X connect 62 0 68 0;
#X connect 63 0 55 0;
#X connect 64 0 56 0;
#X connect 65 0 66 0;
#X connect 66 0 67 0;
#X connect 67 0 70 0;
#X connect 68 0 69 0;
#X connect 69 0 64 1;
#X connect 70 0 63 1;
#X connect 71 0 72 0;
#X connect 72 0 58 0;
#X connect 73 0 61 0;
#X coords 0 -1 1 1 327 71 1 20 20;
