#N canvas 891 102 805 470 12;
#X obj 27 29 fruit/fruit 1 dynamo\$1 \$1 fw_dynamo;
#X obj 21 220 cnv 20 150 50 empty \$0-can empty 20 12 0 12 #a0a0a0 #404040 0;
#X obj 27 116 route 1, f 41;
#X obj 27 166 unpack f f;
#X floatatom 27 231 8 0 0 3 position - - 12;
#X floatatom 94 231 10 0 0 3 speed - - 12;
#X obj 27 141 fruit/decode uint16 int16;
#X obj 27 88 fruit/receive dynamo\$1;
#X obj 413 142 print from_dynamo\$1;
#X obj 311 142 route present;
#X obj 311 170 sel 0 1, f 26;
#X msg 400 195 color 15 22;
#X obj 311 220 s \$0-can;
#X msg 592 120 2 i \$1;
#X obj 595 93 hsl 170 20 0 65535 0 0 empty empty lowpass_freq -2 -10 0 12 #fcfcfc #000000 #000000 0 1;
#X obj 650 120 / 65535;
#X floatatom 650 145 5 0 0 0 - - - 0;
#X obj 569 169 fruit/send2 dynamo\$1;
#X obj 337 111 loadbang;
#X msg 311 195 color 1 22;
#X obj 27 301 list prepend pos \$1;
#X obj 172 301 list prepend speed \$1;
#X obj 27 195 change;
#X obj 94 195 change;
#X obj 27 377 s dynamos;
#X obj 27 347 list trim;
#X obj 569 48 r to_dynamos_fruit;
#X obj 27 3 r dynamos-fruit-enable;
#X msg 182 230 0;
#X obj 157 168 r dynamos-speed-gain;
#X obj 108 167 * 0.05;
#X obj 347 354 r dynamos;
#X obj 347 379 route pos speed, f 19;
#X obj 347 404 route \$1;
#X obj 412 405 route \$1;
#X msg 412 430 set \$1;
#X msg 347 428 set \$1;
#X connect 2 0 6 0;
#X connect 2 1 9 0;
#X connect 3 0 22 0;
#X connect 3 1 30 0;
#X connect 4 0 20 0;
#X connect 5 0 21 0;
#X connect 6 0 3 0;
#X connect 7 0 2 0;
#X connect 9 0 10 0;
#X connect 9 0 28 0;
#X connect 9 1 8 0;
#X connect 10 0 19 0;
#X connect 10 1 11 0;
#X connect 11 0 12 0;
#X connect 13 0 17 0;
#X connect 14 0 13 0;
#X connect 14 0 15 0;
#X connect 15 0 16 0;
#X connect 18 0 19 0;
#X connect 19 0 12 0;
#X connect 20 0 25 0;
#X connect 21 0 25 0;
#X connect 22 0 4 0;
#X connect 23 0 5 0;
#X connect 25 0 24 0;
#X connect 26 0 17 0;
#X connect 27 0 0 0;
#X connect 28 0 5 0;
#X connect 29 0 30 1;
#X connect 30 0 23 0;
#X connect 31 0 32 0;
#X connect 32 0 33 0;
#X connect 32 1 34 0;
#X connect 33 0 36 0;
#X connect 34 0 35 0;
#X connect 35 0 5 0;
#X connect 36 0 4 0;
#X coords 0 -1 1 1 152 70 1 20 200;
