#N canvas 88 19 972 829 12;
#X obj 112 338 file normalize;
#X listbox 74 751 82 0 0 0 - - - 0;
#X obj 214 204 loadbang;
#X obj 112 283 pack s s, f 15;
#X msg 112 311 symbol \$2/\$1;
#X obj 112 230 symbol;
#X msg 75 184 .;
#X msg 112 185 ..;
#X msg 145 186 ../..;
#X obj 112 370 list fromsymbol;
#X obj 396 90 list fromsymbol;
#X obj 395 146 text define \$0-cmptxt;
#X obj 396 117 text set \$0-cmptxt;
#X obj 112 424 text search \$0-cmptxt;
#X listbox 27 786 82 0 0 0 - - - 0;
#X obj 112 65 t b s, f 41;
#X obj 112 124 list split 1, f 20;
#X obj 155 153 list;
#X msg 112 95 list . .. ../..;
#X obj 112 257 t s s, f 9;
#X listbox 329 356 20 0 0 0 - - - 0;
#X obj 112 449 sel 0 -1;
#X obj 308 201 bng 20 250 50 0 empty empty empty 0 -10 0 12 #fcfcfc #000000 #000000;
#X obj 112 397 t a a, f 26;
#X obj 291 426 list length;
#X obj 145 556 list tosymbol;
#X listbox 234 669 69 0 0 0 - - - 0;
#X msg 112 475 0;
#X floatatom 327 463 5 0 0 0 - - - 0;
#X obj 112 529 list split;
#X obj 110 702 list tosymbol;
#X listbox 110 727 69 0 0 0 - - - 0;
#X obj 112 500 text get \$0-cmptxt;
#X obj 145 583 pack s s, f 18;
#X msg 145 608 symbol \$2/\$1;
#X obj 291 463 + 1;
#X obj 214 255 file patchpath;
#X msg 214 230 1;
#X obj 112 33 inlet absolute_path;
#X obj 145 669 outlet;
#X obj 287 604 symbol;
#X obj 145 639 symbol;
#X obj 457 550 list tosymbol;
#X listbox 457 575 69 0 0 0 - - - 0;
#X msg 247 558 symbol;
#X connect 0 0 1 0;
#X connect 0 0 9 0;
#X connect 2 0 37 0;
#X connect 3 0 4 0;
#X connect 3 0 14 0;
#X connect 4 0 0 0;
#X connect 5 0 19 0;
#X connect 6 0 5 0;
#X connect 7 0 5 0;
#X connect 8 0 5 0;
#X connect 9 0 23 0;
#X connect 10 0 12 0;
#X connect 13 0 21 0;
#X connect 15 0 18 0;
#X connect 15 1 10 0;
#X connect 15 1 40 1;
#X connect 16 0 5 0;
#X connect 16 1 17 1;
#X connect 16 2 22 0;
#X connect 16 2 40 0;
#X connect 17 0 16 0;
#X connect 18 0 16 0;
#X connect 19 0 3 0;
#X connect 19 1 20 0;
#X connect 19 1 33 1;
#X connect 21 0 27 0;
#X connect 21 1 17 0;
#X connect 23 0 13 0;
#X connect 23 1 24 0;
#X connect 24 0 28 0;
#X connect 24 0 35 0;
#X connect 25 0 33 0;
#X connect 27 0 32 0;
#X connect 29 0 30 0;
#X connect 29 1 25 0;
#X connect 29 2 42 0;
#X connect 29 2 44 0;
#X connect 30 0 31 0;
#X connect 32 0 29 0;
#X connect 33 0 34 0;
#X connect 34 0 41 0;
#X connect 35 0 29 1;
#X connect 36 0 3 1;
#X connect 37 0 36 0;
#X connect 38 0 15 0;
#X connect 40 0 41 0;
#X connect 41 0 39 0;
#X connect 41 0 26 0;
#X connect 42 0 43 0;
#X connect 44 0 33 0;
