#N canvas 1224 184 328 452 10;
#X obj 41 266 *~, f 8;
#X obj 83 131 pow 2;
#X msg 83 153 \$1 20;
#X obj 83 174 line~;
#X obj 40 208 *~;
#X obj 86 71 hsl 128 15 0 1 0 1 empty empty empty -2 -8 0 10 #fcfcfc #000000 #000000 11846 1;
#X obj 86 243 limiter~;
#X obj 41 243 z~ 64;
#X obj 169 349 - 88;
#X obj 169 370 i;
#X obj 169 391 change;
#X obj 169 327 env~ 2048;
#X obj 40 409 dac~ \$1;
#X obj 99 409 outlet~;
#X obj 41 293 hip~ 20;
#X obj 169 412 s dynout\$1_vu;
#X obj 39 15 catch~ dynout\$1;
#X obj 83 45 r dynamo-Master-snd;
#X obj 83 97 *;
#X obj 131 112 t b f;
#X obj 131 89 r dynamos-audioOn-line;
#X connect 0 0 14 0;
#X connect 1 0 2 0;
#X connect 2 0 3 0;
#X connect 3 0 4 1;
#X connect 4 0 6 0;
#X connect 4 0 7 0;
#X connect 5 0 18 0;
#X connect 6 0 0 1;
#X connect 7 0 0 0;
#X connect 8 0 9 0;
#X connect 9 0 10 0;
#X connect 10 0 15 0;
#X connect 11 0 8 0;
#X connect 14 0 12 0;
#X connect 14 0 13 0;
#X connect 14 0 11 0;
#X connect 16 0 4 0;
#X connect 17 0 5 0;
#X connect 18 0 1 0;
#X connect 19 0 18 0;
#X connect 19 1 18 1;
#X connect 20 0 19 0;
