#N canvas 180 222 1118 636 12;
#X obj 43 21 r dynamos-wavsdir;
#X obj 229 352 soundfiler, f 13;
#X obj 43 46 symbol;
#X obj 93 45 bng 20 250 50 0 empty empty empty 0 -10 0 12 #fcfcfc #000000 #000000;
#X obj 43 70 list prepend \$1 \$2 \$3;
#X msg 229 327 read -resize \$4/\$3/\$2.wav \$1-\$3;
#X obj 229 377 s \$1-\$3-len;
#X obj 43 95 t a a, f 14;
#X obj 43 191 list prepend 0;
#X obj 43 216 route 1 0, f 14;
#X obj 138 145 file isfile;
#X msg 138 120 symbol \$4/\$3/\$2.wav;
#X msg 212 171 0;
#X msg 90 270 list \$1 default \$3 \$4;
#X obj 43 300 t a a, f 27;
#X obj 82 377 file isfile;
#X msg 43 326 symbol \$4/\$3/\$2.txt;
#X obj 43 352 t s s, f 6;
#X obj 43 419 spigot;
#X msg 156 399 0;
#X obj 75 496 text define \$1-\$3-text;
#X msg 75 469 read -c \$1;
#X obj 43 444 t b a;
#X obj 43 530 text get \$1-\$3-text;
#X msg 43 469 0;
#X obj 43 558 s \$1-\$3-marks;
#X obj 317 403 s \$1-\$3-samplerate;
#X obj 317 378 unpack f;
#X obj 90 242 list;
#X obj 272 148 loadbang;
#X obj 232 25 table \$1-\$3 44100;
#X msg 423 202 44100;
#X msg 347 202 44100;
#X msg 272 202 0.25 0.75;
#X obj 272 174 t b b b, f 22;
#X text 337 148 init default;
#X listbox 196 581 131 0 0 0 - - - 0;
#X obj 196 556 list;
#X listbox 152 608 131 0 0 0 - - - 0;
#X obj 43 243 list;
#X connect 0 0 2 0;
#X connect 1 0 6 0;
#X connect 1 1 27 0;
#X connect 2 0 4 0;
#X connect 3 0 2 0;
#X connect 4 0 7 0;
#X connect 5 0 1 0;
#X connect 5 0 37 0;
#X connect 7 0 8 0;
#X connect 7 1 11 0;
#X connect 8 0 9 0;
#X connect 9 0 39 0;
#X connect 9 1 28 0;
#X connect 10 0 8 1;
#X connect 10 1 12 0;
#X connect 11 0 10 0;
#X connect 12 0 8 1;
#X connect 13 0 14 0;
#X connect 14 0 16 0;
#X connect 14 1 5 0;
#X connect 14 1 38 0;
#X connect 15 0 18 1;
#X connect 15 1 19 0;
#X connect 16 0 17 0;
#X connect 17 0 18 0;
#X connect 17 1 15 0;
#X connect 18 0 22 0;
#X connect 19 0 18 1;
#X connect 21 0 20 0;
#X connect 22 0 24 0;
#X connect 22 1 21 0;
#X connect 23 0 25 0;
#X connect 24 0 23 0;
#X connect 27 0 26 0;
#X connect 28 0 13 0;
#X connect 29 0 34 0;
#X connect 31 0 26 0;
#X connect 32 0 6 0;
#X connect 33 0 25 0;
#X connect 34 0 33 0;
#X connect 34 1 32 0;
#X connect 34 2 31 0;
#X connect 37 0 36 0;
#X connect 39 0 14 0;
