#N canvas 444 370 482 557 10;
#X obj 55 220 fruit/receive trampo\$1;
#X obj 166 124 tgl 60 0 P\$1-push-snd P\$1-push-rcv PUSH 3 30 0 24 #fcfcfc #fcfcfc #000000 0 1;
#X obj 55 241 analog/parse;
#X obj 55 262 route 0;
#X obj 55 283 t f f;
#X obj 82 305 v \$0-val;
#X obj 55 328 t f b, f 10;
#X obj 112 348 f \$1;
#X obj 55 413 -, f 10;
#X obj 112 391 +;
#X obj 329 248 v \$0-val;
#X obj 329 269 list prepend \$1;
#X obj 55 434 > 0;
#X obj 55 479 s P\$1-push-rcv;
#X obj 330 374 sel 0 1;
#X msg 330 395 color 0 0 22;
#X msg 349 422 color 15 13 22;
#X obj 330 353 r P\$1-push-snd;
#X obj 330 452 s P\$1-push-rcv;
#X obj 55 457 change;
#X obj 168 458 list prepend \$1;
#X obj 168 479 s PUSH;
#X obj 168 435 r P\$1-push-snd;
#X obj 329 227 r \$2-setzero;
#X obj 329 290 s \$2_zeros;
#X obj 112 370 tabread \$2_zeros;
#X obj 144 390 r \$2_threshold-snd;
#X connect 0 0 2 0;
#X connect 2 0 3 0;
#X connect 3 0 4 0;
#X connect 4 0 6 0;
#X connect 4 1 5 0;
#X connect 6 0 8 0;
#X connect 6 1 7 0;
#X connect 7 0 25 0;
#X connect 8 0 12 0;
#X connect 9 0 8 1;
#X connect 10 0 11 0;
#X connect 11 0 24 0;
#X connect 12 0 19 0;
#X connect 14 0 15 0;
#X connect 14 1 16 0;
#X connect 15 0 18 0;
#X connect 16 0 18 0;
#X connect 17 0 14 0;
#X connect 19 0 13 0;
#X connect 20 0 21 0;
#X connect 22 0 20 0;
#X connect 23 0 10 0;
#X connect 25 0 9 0;
#X connect 26 0 9 1;
#X coords 0 -1 1 1 196 91 1 100 100;
