#N canvas 397 98 450 803 12;
#X obj 34 187 adc~ 1;
#X obj 34 211 env~;
#X obj 180 116 loadbang;
#X msg 180 140 \; pd dsp 1;
#X text 243 152 activate audio on startup;
#X obj 34 235 > 60, f 7;
#X obj 34 259 change;
#X obj 34 283 sel 0 1;
#X msg 99 311 1;
#X msg 57 311 stop;
#X obj 34 339 del 200;
#X msg 34 363 0;
#X obj 34 387 change;
#X obj 34 413 tgl 30 0 empty empty empty 17 7 0 10 -262130 -1 -1 0
1;
#X obj 34 138 nbx 3 25 20 99 0 1 Threshold Threshold Threshold 0 -8
0 20 -204786 -1 -1 60 256;
#X obj 80 211 r Threshold;
#X obj 34 453 s trig1;
#X obj 180 210 env~;
#X obj 180 234 > 60, f 7;
#X obj 180 258 change;
#X obj 180 282 sel 0 1;
#X msg 245 310 1;
#X msg 203 310 stop;
#X obj 180 338 del 200;
#X msg 180 362 0;
#X obj 180 386 change;
#X obj 180 412 tgl 30 0 empty empty empty 17 7 0 10 -262130 -1 -1 0
1;
#X obj 226 210 r Threshold;
#X obj 180 186 adc~ 2;
#X obj 180 452 s trig2;
#X obj 35 505 r trig1;
#X obj 181 504 r trig2;
#X obj 35 724 netsend -b -u;
#X obj 35 623 list prepend send;
#X obj 35 647 list trim;
#X obj 113 648 loadbang;
#X obj 35 748 tgl 15 0 empty empty connected 17 7 0 10 -262144 -1 -1
1 1;
#X obj 28 8 cnv 15 270 40 empty empty Puissance4_Trigger 10 20 2 30
-233017 -66577 0;
#X text 314 749 metalu.net 2020;
#X text 43 62 enveloppe trigger on microphone inputs 1 and 2;
#X text 42 82 send the trigger messages to OSC.;
#X msg 113 672 connect localhost 8185;
#X msg 114 697 disconnect;
#X obj 35 527 sel 1;
#X obj 181 528 sel 1;
#X obj 35 600 oscformat /btn;
#X msg 35 571 1;
#X msg 181 572 2;
#X obj 35 552 bng 15 250 50 0 empty empty empty 17 7 0 10 -262130 -1
-1;
#X obj 181 552 bng 15 250 50 0 empty empty empty 17 7 0 10 -262130
-1 -1;
#X connect 0 0 1 0;
#X connect 1 0 5 0;
#X connect 2 0 3 0;
#X connect 5 0 6 0;
#X connect 6 0 7 0;
#X connect 7 0 10 0;
#X connect 7 1 8 0;
#X connect 7 1 9 0;
#X connect 8 0 12 0;
#X connect 9 0 10 0;
#X connect 10 0 11 0;
#X connect 11 0 12 0;
#X connect 12 0 13 0;
#X connect 13 0 16 0;
#X connect 15 0 5 1;
#X connect 17 0 18 0;
#X connect 18 0 19 0;
#X connect 19 0 20 0;
#X connect 20 0 23 0;
#X connect 20 1 21 0;
#X connect 20 1 22 0;
#X connect 21 0 25 0;
#X connect 22 0 23 0;
#X connect 23 0 24 0;
#X connect 24 0 25 0;
#X connect 25 0 26 0;
#X connect 26 0 29 0;
#X connect 27 0 18 1;
#X connect 28 0 17 0;
#X connect 30 0 43 0;
#X connect 31 0 44 0;
#X connect 32 0 36 0;
#X connect 33 0 34 0;
#X connect 34 0 32 0;
#X connect 35 0 41 0;
#X connect 41 0 32 0;
#X connect 42 0 32 0;
#X connect 43 0 48 0;
#X connect 44 0 49 0;
#X connect 45 0 33 0;
#X connect 46 0 45 0;
#X connect 47 0 45 0;
#X connect 48 0 46 0;
#X connect 49 0 47 0;
