#N canvas 144 382 759 593 12;
#X obj 58 16 inlet bang;
#X obj 268 63 savestate;
#X listbox 328 118 20 0 0 0 - - - 0;
#X obj 104 133 hsl 120 15 0 1 0 0 \$0-f-snd \$0-f-rcv freq 10 7 0 12 #faff00 #000000 #000000 0 1;
#X obj 104 149 hsl 120 15 0 1 0 0 \$0-vol-snd \$0-vol-rcv vol 10 7 0 12 #ff0400 #000000 #000000 0 1;
#X obj 101 117 hradio 15 1 0 2 \$0-wf-snd \$0-wf-rcv noise 35 7 0 12 #fcfcfc #000000 #000000 0;
#X obj 352 33 r \$0-wf-snd;
#X msg 352 57 set 0 \$1;
#X obj 442 32 r \$0-f-snd;
#X msg 442 56 set 1 \$1;
#X obj 523 32 r \$0-vol-snd;
#X msg 523 56 set 2 \$1;
#X obj 328 93 list store 0 0 0;
#X obj 268 170 s \$0-wf-rcv;
#X obj 357 169 s \$0-f-rcv;
#X obj 447 169 s \$0-vol-rcv;
#X obj 268 143 unpack f f f, f 26;
#X obj 58 66 s \$0-bang;
#X obj 159 15 loadbang;
#X msg 159 40 \; pd dsp 1;
#X obj 74 213 r \$0-bang;
#X obj 204 247 r \$0-wf-snd;
#X obj 204 272 == 0;
#X obj 186 299 *~;
#X obj 185 217 noise~;
#X msg 74 263 1 \, 0 \$1;
#X obj 74 288 line~;
#X obj 74 313 *~;
#X obj 74 378 *~, f 18;
#X obj 74 536 *~;
#X obj 74 561 dac~;
#X obj 91 411 r \$0-vol-snd;
#X obj 91 436 pow 2;
#X obj 91 461 / 2;
#X msg 91 486 \$1 10;
#X obj 91 511 line~;
#X obj 211 118 bng 15 250 50 0 empty empty empty 0 -10 0 12 #fcfcfc #000000 #000000;
#X floatatom 213 485 5 0 0 0 - - - 0;
#X obj 74 238 f 500;
#X obj 290 209 r \$0-f-snd;
#X obj 290 286 mtof;
#X obj 290 234 * 60;
#X obj 290 259 + 70;
#X obj 414 367 r \$0-wf-snd;
#X obj 396 419 *~;
#X obj 396 200 r \$0-f-snd;
#X obj 396 277 mtof;
#X obj 414 391 == 1;
#X obj 396 301 phasor~;
#X obj 396 225 * 70;
#X obj 396 250 + 30;
#X obj 187 325 bp~ 4000 20;
#X obj 584 215 r \$0-wf-snd;
#X obj 584 240 sel 0 1;
#X msg 584 265 noise;
#X obj 584 290 symbol;
#X obj 584 343 s \$0-wf-rcv;
#X msg 584 315 label \$1;
#X msg 631 265 saw;
#X obj 396 332 lop~, f 9;
#X obj 456 302 * 8;
#X obj 187 350 *~ 5;
#X connect 0 0 36 0;
#X connect 1 0 16 0;
#X connect 1 1 12 0;
#X connect 6 0 7 0;
#X connect 7 0 12 0;
#X connect 8 0 9 0;
#X connect 9 0 12 0;
#X connect 10 0 11 0;
#X connect 11 0 12 0;
#X connect 12 0 2 0;
#X connect 12 0 1 0;
#X connect 16 0 13 0;
#X connect 16 1 14 0;
#X connect 16 2 15 0;
#X connect 18 0 19 0;
#X connect 20 0 38 0;
#X connect 21 0 22 0;
#X connect 22 0 23 1;
#X connect 23 0 51 0;
#X connect 24 0 23 0;
#X connect 25 0 26 0;
#X connect 26 0 27 0;
#X connect 26 0 27 1;
#X connect 27 0 28 0;
#X connect 28 0 29 0;
#X connect 29 0 30 0;
#X connect 29 0 30 1;
#X connect 31 0 32 0;
#X connect 32 0 33 0;
#X connect 33 0 34 0;
#X connect 33 0 37 0;
#X connect 34 0 35 0;
#X connect 35 0 29 1;
#X connect 36 0 17 0;
#X connect 38 0 25 0;
#X connect 39 0 41 0;
#X connect 40 0 51 1;
#X connect 41 0 42 0;
#X connect 42 0 40 0;
#X connect 43 0 47 0;
#X connect 44 0 28 1;
#X connect 45 0 49 0;
#X connect 46 0 48 0;
#X connect 46 0 60 0;
#X connect 47 0 44 1;
#X connect 48 0 59 0;
#X connect 49 0 50 0;
#X connect 50 0 46 0;
#X connect 51 0 61 0;
#X connect 52 0 53 0;
#X connect 53 0 54 0;
#X connect 53 1 58 0;
#X connect 54 0 55 0;
#X connect 55 0 57 0;
#X connect 57 0 56 0;
#X connect 58 0 55 0;
#X connect 59 0 44 0;
#X connect 60 0 59 1;
#X connect 61 0 28 1;
#X coords 0 -1 1 1 126 65 1 100 100;
