#N canvas 845 232 897 372 10;
#X declare -path Fraise -stdpath Fraise;
#X obj 101 224 analog/parse;
#X floatatom 101 273 8 0 0 0 - - - 0;
#X obj 21 38 pied/pied 0 41424;
#X obj 21 16 declare -path Fraise -stdpath Fraise;
#X obj 18 199 fruit/receive trampo1;
#X obj 101 249 route 0;
#X obj 317 225 analog/parse;
#X floatatom 317 274 8 0 0 0 - - - 0;
#X obj 317 250 route 0;
#X obj 234 200 fruit/receive trampo2;
#X obj 538 225 analog/parse;
#X floatatom 538 274 8 0 0 0 - - - 0;
#X obj 538 250 route 0;
#X obj 758 223 analog/parse;
#X floatatom 758 272 8 0 0 0 - - - 0;
#X obj 758 248 route 0;
#X obj 19 141 fruit/fruit 1 trampo1 11 trampo_fw;
#X obj 235 142 fruit/fruit 1 trampo2 12 trampo_fw;
#X obj 455 141 fruit/fruit 1 trampo3 13 trampo_fw;
#X obj 676 140 fruit/fruit 1 trampo4 14 trampo_fw;
#X obj 455 200 fruit/receive trampo3;
#X obj 675 198 fruit/receive trampo4;
#X obj 18 237 route T;
#X floatatom 18 258 5 0 0 0 - - - 24;
#X obj 234 233 route T;
#X floatatom 234 254 5 0 0 0 - - - 24;
#X obj 455 235 route T;
#X floatatom 455 256 5 0 0 0 - - - 24;
#X obj 675 232 route T;
#X floatatom 675 253 5 0 0 0 - - - 24;
#X connect 0 0 5 0;
#X connect 4 0 0 0;
#X connect 4 0 22 0;
#X connect 5 0 1 0;
#X connect 6 0 8 0;
#X connect 8 0 7 0;
#X connect 9 0 6 0;
#X connect 9 0 24 0;
#X connect 10 0 12 0;
#X connect 12 0 11 0;
#X connect 13 0 15 0;
#X connect 15 0 14 0;
#X connect 20 0 10 0;
#X connect 20 0 26 0;
#X connect 21 0 13 0;
#X connect 21 0 28 0;
#X connect 22 0 23 0;
#X connect 24 0 25 0;
#X connect 26 0 27 0;
#X connect 28 0 29 0;
