#N canvas 124 124 450 300 12;
#X obj 59 16 table \$0-t \$1;
#X obj 61 44 inlet;
#X obj 246 171 i;
#X obj 276 172 + 1;
#X obj 306 172 mod \$1;
#X obj 61 146 array sum \$0-t;
#X obj 61 101 t b f;
#X obj 214 146 t f b;
#X obj 214 199 array set \$0-t;
#X floatatom 122 245 5 0 0 0 - - - 0;
#X obj 61 200 outlet;
#X obj 61 173 / \$1;
#X obj 170 76 inlet;
#X obj 61 73 moses 800;
#X connect 1 0 13 0;
#X connect 2 0 3 0;
#X connect 2 0 8 1;
#X connect 3 0 4 0;
#X connect 4 0 2 1;
#X connect 5 0 11 0;
#X connect 6 0 5 0;
#X connect 6 1 7 0;
#X connect 7 0 8 0;
#X connect 7 1 2 0;
#X connect 11 0 10 0;
#X connect 12 0 4 1;
#X connect 12 0 11 1;
#X connect 12 0 5 1;
#X connect 13 0 6 0;
