#N canvas 1176 493 570 402 10;
#X obj 181 74 analog/parse;
#X floatatom 181 124 5 0 0 3 pression - - 24;
#X obj 181 99 route 0;
#X obj 103 103 route T;
#X floatatom 103 124 5 0 0 3 saut - - 24;
#X obj 103 52 fruit/receive trampo\$1;
#X obj 134 364 fruit/send trampo\$1;
#X obj 13 170 route present;
#X obj 13 192 tgl 15 0 empty empty empty 17 7 0 10 #fcfcfc #000000
#000000 0 1;
#X obj 13 212 sel 1;
#X msg 70 331 c 1 i \$1;
#X text 126 330 threshold;
#X text 267 329 window_ms;
#X msg 211 330 c 2 i \$1;
#X msg 364 332 c 3 i \$1;
#X text 420 331 restart_ms;
#X msg 36 250 120;
#X floatatom 36 271 5 0 0 0 - - - 0;
#X msg 68 250 250;
#X msg 100 250 500;
#X obj 424 207 * 111.11;
#X floatatom 431 271 8 0 0 0 - - - 12;
#X obj 345 230 + 0.095;
#X obj 345 251 * 111.11;
#X obj 424 186 - 0.04;
#X obj 326 275 i;
#X obj 426 161 / 2048;
#X obj 427 239 / 0.307;
#X msg 415 97 67;
#X msg 450 97 90;
#X connect 0 0 2 0;
#X connect 1 0 26 0;
#X connect 2 0 1 0;
#X connect 3 0 4 0;
#X connect 5 0 0 0;
#X connect 5 0 3 0;
#X connect 5 0 7 0;
#X connect 7 0 8 0;
#X connect 8 0 9 0;
#X connect 10 0 6 0;
#X connect 13 0 6 0;
#X connect 14 0 6 0;
#X connect 16 0 17 0;
#X connect 17 0 10 0;
#X connect 18 0 17 0;
#X connect 19 0 17 0;
#X connect 20 0 27 0;
#X connect 22 0 23 0;
#X connect 23 0 25 0;
#X connect 24 0 20 0;
#X connect 26 0 24 0;
#X connect 27 0 21 0;
#X connect 28 0 26 0;
#X connect 29 0 26 0;
#X coords 0 -1 1 1 196 91 1 100 100;
