#N canvas 1176 493 570 402 10;
#X obj 336 71 analog/parse;
#X floatatom 164 124 5 0 0 3 pression - -;
#X obj 336 96 route 0;
#X floatatom 103 124 5 0 0 3 saut - -;
#X obj 103 52 fruit/receive trampo\$1;
#X obj 134 364 fruit/send trampo\$1;
#X obj 13 170 route present;
#X obj 13 192 tgl 15 0 empty empty empty 17 7 0 10 -262144 -1 -1 1
1;
#X obj 13 212 sel 1;
#X msg 70 331 c 1 i \$1;
#X text 126 330 threshold;
#X text 267 329 window_ms;
#X msg 211 330 c 2 i \$1;
#X msg 364 332 c 3 i \$1;
#X text 420 331 restart_ms;
#X msg 36 250 120;
#X floatatom 36 271 5 0 0 0 - - -;
#X msg 68 250 250;
#X msg 100 250 500;
#X obj 424 207 * 111.11;
#X floatatom 431 271 8 0 0 0 - - -;
#X obj 345 230 + 0.095;
#X obj 345 251 * 111.11;
#X obj 424 186 - 0.04;
#X obj 326 275 i;
#X obj 426 161 / 2048;
#X obj 427 239 / 0.307;
#X msg 415 97 67;
#X msg 450 97 90;
#X obj 110 172 list prepend \$1;
#X obj 110 193 s SAUT;
#X obj 215 171 list prepend \$1;
#X obj 215 192 s PRESSION;
#X obj 103 103 route T I;
#X obj 164 104 unpack f f, f 12;
#X floatatom 240 124 5 0 0 3 max - -;
#X floatatom 336 117 5 0 0 0 - - -;
#X obj 262 37 print;
#X floatatom 187 270 5 0 0 0 - - -;
#X obj 187 249 max;
#X obj 212 249 f;
#X msg 254 241 0;
#X connect 0 0 2 0;
#X connect 1 0 25 0;
#X connect 2 0 36 0;
#X connect 3 0 29 0;
#X connect 4 0 6 0;
#X connect 4 0 33 0;
#X connect 6 0 7 0;
#X connect 7 0 8 0;
#X connect 9 0 5 0;
#X connect 12 0 5 0;
#X connect 13 0 5 0;
#X connect 15 0 16 0;
#X connect 16 0 9 0;
#X connect 17 0 16 0;
#X connect 18 0 16 0;
#X connect 19 0 26 0;
#X connect 21 0 22 0;
#X connect 22 0 24 0;
#X connect 23 0 19 0;
#X connect 25 0 23 0;
#X connect 26 0 20 0;
#X connect 27 0 25 0;
#X connect 28 0 25 0;
#X connect 29 0 30 0;
#X connect 31 0 32 0;
#X connect 33 0 3 0;
#X connect 33 1 34 0;
#X connect 33 1 31 0;
#X connect 34 0 1 0;
#X connect 34 1 35 0;
#X connect 39 0 38 0;
#X connect 39 0 40 0;
#X connect 40 0 39 1;
#X connect 41 0 40 0;
#X coords 0 -1 1 1 196 91 1 100 100;
