#N canvas 444 370 753 573 10;
#X floatatom 179 301 5 0 0 3 pression - - 0;
#X floatatom 118 301 5 0 0 3 saut - - 0;
#X obj 421 11 fruit/receive trampo\$1;
#X obj 149 541 fruit/send trampo\$1;
#X obj 28 347 route present;
#X obj 28 369 tgl 15 0 empty empty empty 17 7 0 10 #fcfcfc #000000 #000000 0 1;
#X obj 28 389 sel 1;
#X msg 85 508 c 1 i \$1;
#X text 141 507 threshold;
#X text 282 506 window_ms;
#X msg 226 507 c 2 i \$1;
#X msg 379 509 c 3 i \$1;
#X text 435 508 restart_ms;
#X msg 51 427 120;
#X floatatom 51 448 5 0 0 0 - - - 0;
#X msg 83 427 250;
#X msg 115 427 500;
#X obj 439 384 * 111.11;
#X floatatom 446 448 8 0 0 0 - - - 0;
#X obj 360 407 + 0.095;
#X obj 360 428 * 111.11;
#X obj 439 363 - 0.04;
#X obj 341 452 i;
#X obj 441 338 / 2048;
#X obj 442 416 / 0.307;
#X msg 440 309 67;
#X msg 475 309 90;
#X obj 125 349 list prepend \$1;
#X obj 125 370 s SAUT;
#X obj 230 348 list prepend \$1;
#X obj 230 369 s PRESSION;
#X obj 118 280 route T I;
#X obj 179 281 unpack f f, f 12;
#X floatatom 255 301 5 0 0 3 max - - 0;
#X floatatom 202 447 5 0 0 0 - - - 0;
#X obj 202 426 max;
#X obj 227 426 f;
#X msg 176 398 0;
#X floatatom 149 447 5 0 0 0 - - - 0;
#X obj 149 426 max;
#X obj 174 426 f;
#X obj 166 124 tgl 60 0 P\$1-push-snd P\$1-push-rcv PUSH 3 30 0 24 #fcfcfc #fcfcfc #000000 0 1;
#X obj 421 32 analog/parse;
#X obj 421 53 route 0;
#X obj 421 74 t f f;
#X obj 448 96 v \$0-val;
#X obj 421 119 t f b, f 10;
#X obj 478 139 f \$1;
#X obj 421 204 -, f 10;
#X obj 478 182 +;
#X obj 587 48 v \$0-val;
#X obj 587 69 list prepend \$1;
#X floatatom 377 37 5 0 0 0 - - - 0;
#X obj 421 225 > 0;
#X obj 421 270 s P\$1-push-rcv;
#X floatatom 534 86 5 0 0 0 - - - 0;
#X floatatom 320 255 5 0 0 0 - - - 0;
#X obj 603 345 sel 0 1;
#X msg 603 366 color 0 0 22;
#X msg 622 393 color 15 13 22;
#X obj 603 324 r P\$1-push-snd;
#X obj 603 423 s P\$1-push-rcv;
#X obj 421 248 change;
#X obj 534 249 list prepend \$1;
#X obj 534 270 s PUSH;
#X obj 534 226 r P\$1-push-snd;
#X obj 587 27 r \$2-setzero;
#X obj 587 90 s \$2_zeros;
#X obj 478 161 tabread \$2 _zeros;
#X obj 510 181 r \$2 _threshold-snd;
#X connect 0 0 23 0;
#X connect 1 0 27 0;
#X connect 2 0 42 0;
#X connect 4 0 5 0;
#X connect 5 0 6 0;
#X connect 7 0 3 0;
#X connect 10 0 3 0;
#X connect 11 0 3 0;
#X connect 13 0 14 0;
#X connect 14 0 7 0;
#X connect 15 0 14 0;
#X connect 16 0 14 0;
#X connect 17 0 24 0;
#X connect 19 0 20 0;
#X connect 20 0 22 0;
#X connect 21 0 17 0;
#X connect 23 0 21 0;
#X connect 24 0 18 0;
#X connect 25 0 23 0;
#X connect 26 0 23 0;
#X connect 27 0 28 0;
#X connect 29 0 30 0;
#X connect 31 0 1 0;
#X connect 31 1 32 0;
#X connect 31 1 29 0;
#X connect 32 0 0 0;
#X connect 32 0 39 0;
#X connect 32 1 33 0;
#X connect 32 1 35 0;
#X connect 35 0 34 0;
#X connect 35 0 36 0;
#X connect 36 0 35 1;
#X connect 37 0 36 0;
#X connect 37 0 40 0;
#X connect 39 0 38 0;
#X connect 39 0 40 0;
#X connect 40 0 39 1;
#X connect 42 0 43 0;
#X connect 43 0 44 0;
#X connect 44 0 46 0;
#X connect 44 1 45 0;
#X connect 46 0 48 0;
#X connect 46 1 47 0;
#X connect 47 0 68 0;
#X connect 48 0 53 0;
#X connect 49 0 48 1;
#X connect 50 0 51 0;
#X connect 51 0 67 0;
#X connect 53 0 62 0;
#X connect 57 0 58 0;
#X connect 57 1 59 0;
#X connect 58 0 61 0;
#X connect 59 0 61 0;
#X connect 60 0 57 0;
#X connect 62 0 54 0;
#X connect 63 0 64 0;
#X connect 65 0 63 0;
#X connect 66 0 50 0;
#X connect 68 0 49 0;
#X connect 69 0 49 1;
#X coords 0 -1 1 1 196 91 1 100 100;
