#N canvas 124 124 426 316 10;
#X obj 25 228 netsend -b -u;
#X obj 25 127 list prepend send;
#X obj 25 151 list trim;
#X obj 181 136 loadbang;
#X obj 25 252 tgl 15 0 empty empty connected 17 7 0 10 -262144 -1 -1
1 1;
#X msg 180 196 disconnect;
#X msg 181 160 connect localhost 8000;
#X obj 25 79 oscformat -f if /pression;
#X obj 191 79 oscformat -f if /saut;
#X obj 191 41 r SAUT;
#X obj 25 39 r PRESSION;
#X connect 0 0 4 0;
#X connect 1 0 2 0;
#X connect 2 0 0 0;
#X connect 3 0 6 0;
#X connect 5 0 0 0;
#X connect 6 0 0 0;
#X connect 7 0 1 0;
#X connect 8 0 1 0;
#X connect 9 0 8 0;
#X connect 10 0 7 0;
