#N canvas 14 595 443 257 12;
#X obj 40 77 oscparse;
#X obj 40 105 list trim;
#X text 38 23 OSC receiver for testing puissance4trigger;
#X obj 40 53 netreceive -u -b 8000;
#X obj 40 129 route saut pression, f 54;
#X obj 40 167 route 1 2 3 4, f 24;
#X floatatom 40 191 5 0 0 0 - - -;
#X floatatom 81 192 5 0 0 0 - - -;
#X floatatom 122 192 5 0 0 0 - - -;
#X floatatom 163 192 5 0 0 0 - - -;
#X obj 227 169 route 1 2 3 4, f 24;
#X floatatom 227 193 5 0 0 0 - - -;
#X floatatom 268 194 5 0 0 0 - - -;
#X floatatom 309 194 5 0 0 0 - - -;
#X floatatom 350 194 5 0 0 0 - - -;
#X connect 0 0 1 0;
#X connect 1 0 4 0;
#X connect 3 0 0 0;
#X connect 4 0 5 0;
#X connect 4 1 10 0;
#X connect 5 0 6 0;
#X connect 5 1 7 0;
#X connect 5 2 8 0;
#X connect 5 3 9 0;
#X connect 10 0 11 0;
#X connect 10 1 12 0;
#X connect 10 2 13 0;
#X connect 10 3 14 0;
