#N canvas 14 595 765 335 12;
#X obj 40 77 oscparse;
#X obj 40 105 list trim;
#X text 38 23 OSC receiver for testing puissance4trigger;
#X obj 40 53 netreceive -u -b 8000;
#X obj 40 129 route saut pression, f 54;
#X obj 40 167 route 1 2 3 4, f 24;
#X floatatom 40 191 5 0 0 0 - - -;
#X floatatom 81 192 5 0 0 0 - - -;
#X floatatom 122 192 5 0 0 0 - - -;
#X floatatom 163 192 5 0 0 0 - - -;
#X obj 227 169 route 1 2 3 4, f 67;
#X obj 227 193 unpack f f;
#X floatatom 227 217 5 0 0 3 pression - -;
#X floatatom 294 217 5 0 0 3 max - -;
#X obj 343 194 unpack f f;
#X floatatom 343 218 5 0 0 3 pression - -;
#X floatatom 410 218 5 0 0 3 max - -;
#X obj 460 194 unpack f f;
#X floatatom 460 218 5 0 0 3 pression - -;
#X floatatom 527 218 5 0 0 3 max - -;
#X obj 576 195 unpack f f;
#X floatatom 576 219 5 0 0 3 pression - -;
#X floatatom 643 219 5 0 0 3 max - -;
#X connect 0 0 1 0;
#X connect 1 0 4 0;
#X connect 3 0 0 0;
#X connect 4 0 5 0;
#X connect 4 1 10 0;
#X connect 5 0 6 0;
#X connect 5 1 7 0;
#X connect 5 2 8 0;
#X connect 5 3 9 0;
#X connect 10 0 11 0;
#X connect 10 1 14 0;
#X connect 10 2 17 0;
#X connect 10 3 20 0;
#X connect 11 0 12 0;
#X connect 11 1 13 0;
#X connect 14 0 15 0;
#X connect 14 1 16 0;
#X connect 17 0 18 0;
#X connect 17 1 19 0;
#X connect 20 0 21 0;
#X connect 20 1 22 0;
