#N canvas 14 595 1131 335 12;
#X obj 40 77 oscparse;
#X obj 40 105 list trim;
#X obj 40 53 netreceive -u -b 8000;
#X obj 414 143 route 1 2 3 4, f 24;
#X floatatom 414 167 5 0 0 0 - - - 0;
#X floatatom 455 168 5 0 0 0 - - - 0;
#X floatatom 496 168 5 0 0 0 - - - 0;
#X floatatom 537 168 5 0 0 0 - - - 0;
#X obj 601 145 route 1 2 3 4, f 67;
#X obj 601 169 unpack f f;
#X floatatom 601 193 5 0 0 3 pression - - 0;
#X floatatom 668 193 5 0 0 3 max - - 0;
#X obj 717 170 unpack f f;
#X floatatom 717 194 5 0 0 3 pression - - 0;
#X floatatom 784 194 5 0 0 3 max - - 0;
#X obj 834 170 unpack f f;
#X floatatom 834 194 5 0 0 3 pression - - 0;
#X floatatom 901 194 5 0 0 3 max - - 0;
#X obj 950 171 unpack f f;
#X floatatom 950 195 5 0 0 3 pression - - 0;
#X floatatom 1017 195 5 0 0 3 max - - 0;
#X obj 40 181 route 1 2 3 4, f 24;
#X obj 40 211 tgl 30 0 empty empty empty 0 -10 0 12 #fcfcfc #000000 #000000 0 1;
#X obj 81 211 tgl 30 0 empty empty empty 0 -10 0 12 #fcfcfc #000000 #000000 0 1;
#X obj 122 211 tgl 30 0 empty empty empty 0 -10 0 12 #fcfcfc #000000 #000000 0 1;
#X obj 163 211 tgl 30 0 empty empty empty 0 -10 0 12 #fcfcfc #000000 #000000 0 1;
#X msg 40 157 \$1 1;
#X obj 40 133 route btn_on btn_off;
#X msg 108 156 \$1 0;
#X obj 414 105 route saut pression, f 54;
#X text 38 23 OSC receiver for testing Trampo;
#X connect 0 0 1 0;
#X connect 1 0 27 0;
#X connect 2 0 0 0;
#X connect 3 0 4 0;
#X connect 3 1 5 0;
#X connect 3 2 6 0;
#X connect 3 3 7 0;
#X connect 8 0 9 0;
#X connect 8 1 12 0;
#X connect 8 2 15 0;
#X connect 8 3 18 0;
#X connect 9 0 10 0;
#X connect 9 1 11 0;
#X connect 12 0 13 0;
#X connect 12 1 14 0;
#X connect 15 0 16 0;
#X connect 15 1 17 0;
#X connect 18 0 19 0;
#X connect 18 1 20 0;
#X connect 21 0 22 0;
#X connect 21 1 23 0;
#X connect 21 2 24 0;
#X connect 21 3 25 0;
#X connect 26 0 21 0;
#X connect 27 0 26 0;
#X connect 27 1 28 0;
#X connect 28 0 21 0;
#X connect 29 0 3 0;
#X connect 29 1 8 0;
