#N canvas 0 0 450 300 10;
#X obj 27 74 hsl 150 60 10 200 0 0 \$1_threshold-snd \$1_threshold-rcv threshold:63 5 30 0 18 #fcfcfc #000000 #000000 0 1;
#N canvas 483 82 449 570 save_threshold 1;
#X msg 58 103 0 \$1;
#X obj 58 60 i;
#X obj 58 80 change;
#X obj 187 62 del 1000;
#X obj 187 106 pdcontrol;
#X msg 187 83 dir;
#X msg 187 131 write \$1/threshold.txt;
#X obj 50 224 loadbang;
#X msg 113 270 5;
#X msg 26 157 label threshold:\$1;
#X msg 97 315 stop;
#X obj 81 367 pdcontrol;
#X msg 81 344 dir;
#X msg 81 392 read \$1/threshold.txt;
#X msg 65 437 0;
#X obj 50 247 t b b b b b;
#X obj 232 29 table \$1_threstab 1;
#X obj 58 37 r \$1_threshold-snd;
#X obj 58 124 s \$1_threstab;
#X obj 187 154 s \$1_threstab;
#X obj 26 182 s \$1_threshold-rcv;
#X obj 81 415 s \$1_threstab;
#X obj 65 459 tabread \$1_threstab;
#X obj 112 523 s \$1_threshold-rcv;
#X connect 0 0 18 0;
#X connect 1 0 2 0;
#X connect 2 0 0 0;
#X connect 2 0 3 0;
#X connect 2 0 9 0;
#X connect 3 0 5 0;
#X connect 4 0 6 0;
#X connect 5 0 4 0;
#X connect 6 0 19 0;
#X connect 7 0 15 0;
#X connect 8 0 23 0;
#X connect 9 0 20 0;
#X connect 10 0 3 0;
#X connect 11 0 13 0;
#X connect 12 0 11 0;
#X connect 13 0 21 0;
#X connect 14 0 22 0;
#X connect 15 0 10 0;
#X connect 15 1 14 0;
#X connect 15 2 12 0;
#X connect 15 3 10 0;
#X connect 15 4 8 0;
#X connect 17 0 1 0;
#X connect 22 0 23 0;
#X restore 266 46 pd save_threshold;
#X obj 184 73 bng 60 250 50 0 \$1-setzero empty ZERO 8 30 0 18 #fc0400 #000000 #f8fc00;
#N canvas 93 407 363 242 save_zeros 1;
#X obj 39 48 r \$1-setzero;
#X obj 39 69 b;
#X obj 39 90 del 50;
#X obj 39 136 pdcontrol;
#X msg 39 113 dir;
#X msg 39 161 write \$1/zeros.txt;
#X obj 39 15 table \$1_zeros 5;
#X obj 39 184 s \$1_zeros;
#X obj 186 51 loadbang;
#X obj 186 97 pdcontrol;
#X msg 186 74 dir;
#X obj 186 145 s \$1_zeros;
#X msg 186 122 read \$1/zeros.txt;
#X connect 0 0 1 0;
#X connect 1 0 2 0;
#X connect 2 0 4 0;
#X connect 3 0 5 0;
#X connect 4 0 3 0;
#X connect 5 0 7 0;
#X connect 8 0 10 0;
#X connect 9 0 12 0;
#X connect 10 0 9 0;
#X connect 12 0 11 0;
#X restore 266 68 pd save_zeros;
#X coords 0 -1 1 1 230 90 1 20 50;
