#N canvas 129 22 657 466 12;
#X declare -path Fraise;
#X obj 20 18 declare -path Fraise;
#X obj 25 62 pied/pied 1;
#X msg 309 177 Ehello;
#X obj 24 139 fruit/fruit 1 machines1 0 fw_machines;
#X obj 193 204 fruit/send machines1;
#X obj 24 194 fruit/receive machines1;
#X obj 133 250 print from_machines1;
#X obj 43 378 route 0 1 2 3 4 5 6 7 8 9 10 11 12 13 14 15, f 82;
#X obj 43 404 tgl 20 0 empty empty empty 0 -10 0 12 #fcfcfc #000000 #000000 0 1;
#X obj 78 404 tgl 20 0 empty empty empty 0 -10 0 12 #fcfcfc #000000 #000000 0 1;
#X obj 114 404 tgl 20 0 empty empty empty 0 -10 0 12 #fcfcfc #000000 #000000 0 1;
#X obj 150 404 tgl 20 0 empty empty empty 0 -10 0 12 #fcfcfc #000000 #000000 0 1;
#X obj 185 404 tgl 20 0 empty empty empty 0 -10 0 12 #fcfcfc #000000 #000000 0 1;
#X obj 220 404 tgl 20 0 empty empty empty 0 -10 0 12 #fcfcfc #000000 #000000 0 1;
#X obj 256 404 tgl 20 0 empty empty empty 0 -10 0 12 #fcfcfc #000000 #000000 0 1;
#X obj 292 404 tgl 20 0 empty empty empty 0 -10 0 12 #fcfcfc #000000 #000000 0 1;
#X obj 328 404 tgl 20 0 empty empty empty 0 -10 0 12 #fcfcfc #000000 #000000 0 1;
#X obj 363 404 tgl 20 0 empty empty empty 0 -10 0 12 #fcfcfc #000000 #000000 0 1;
#X obj 399 404 tgl 20 0 empty empty empty 0 -10 0 12 #fcfcfc #000000 #000000 0 1;
#X obj 435 404 tgl 20 0 empty empty empty 0 -10 0 12 #fcfcfc #000000 #000000 0 1;
#X obj 470 404 tgl 20 0 empty empty empty 0 -10 0 12 #fcfcfc #000000 #000000 0 1;
#X obj 505 404 tgl 20 0 empty empty empty 0 -10 0 12 #fcfcfc #000000 #000000 0 1;
#X obj 541 404 tgl 20 0 empty empty empty 0 -10 0 12 #fcfcfc #000000 #000000 0 1;
#X obj 577 404 tgl 20 0 empty empty empty 0 -10 0 12 #fcfcfc #000000 #000000 0 1;
#X obj 24 219 route P S E;
#X floatatom 144 295 9 0 0 0 - - - 0;
#X obj 438 170 send_OSC \$0;
#X obj 48 294 s \$0-buttons;
#X obj 144 319 s \$0-encoder;
#X obj 43 351 r \$0-buttons;
#X connect 2 0 4 1;
#X connect 5 0 24 0;
#X connect 7 0 8 0;
#X connect 7 1 9 0;
#X connect 7 2 10 0;
#X connect 7 3 11 0;
#X connect 7 4 12 0;
#X connect 7 5 13 0;
#X connect 7 6 14 0;
#X connect 7 7 15 0;
#X connect 7 8 16 0;
#X connect 7 9 17 0;
#X connect 7 10 18 0;
#X connect 7 11 19 0;
#X connect 7 12 20 0;
#X connect 7 13 21 0;
#X connect 7 14 22 0;
#X connect 7 15 23 0;
#X connect 24 1 27 0;
#X connect 24 2 25 0;
#X connect 24 3 6 0;
#X connect 25 0 28 0;
#X connect 29 0 7 0;
