#N canvas 476 112 741 886 12;
#X declare -path Fraise;
#X obj 20 18 declare -path Fraise;
#X obj 25 62 pied/pied 1;
#X msg 319 169 Ehello;
#X obj 24 139 fruit/fruit 1 machines1 0 fw_machines;
#X obj 203 196 fruit/send machines1;
#X obj 24 194 fruit/receive machines1;
#X obj 96 222 print from_machines1;
#X floatatom 60 259 9 0 0 0 - - - 0;
#X obj 256 18 send_OSC \$0;
#X obj 352 593 tgl 20 0 empty empty empty 0 -10 0 12 #fcfcfc #000000 #000000 0 1;
#X obj 352 624 switch~;
#X obj 402 79 f;
#X obj 402 28 tgl 20 0 empty empty empty 0 -10 0 12 #fcfcfc #000000 #000000 0 1;
#X obj 402 108 t f f;
#X obj 402 133 -;
#X floatatom 339 361 8 0 0 0 - - - 0;
#X obj 473 334 hsl 170 20 -500 500 0 0 empty empty empty -2 -10 0 12 #feffc6 #000000 #000000 0 1;
#X obj 402 158 + 32768;
#X obj 402 183 mod 65536;
#X obj 402 208 - 32768;
#X obj 402 54 metro 20;
#X obj 402 309 * 10;
#X obj 402 334 i;
#X obj 402 359 change;
#X obj 402 236 lowpass_ctl 0.5;
#X obj 402 260 lowpass_ctl 0.5;
#X obj 402 284 lowpass_ctl 0.5;
#X obj 61 283 s \$0-encoder;
#X obj 402 385 s \$0-encoder_speed;
#X obj 433 78 r \$0-encoder;
#X obj 402 4 loadbang;
#X obj 202 592 r \$0-encoder_speed;
#X obj 202 617 abs;
#X obj 202 694 mtof;
#X obj 202 719 lop~ 10;
#X obj 202 744 phasor~;
#X obj 202 769 *~;
#X obj 287 669 / 100;
#X obj 287 694 clip 0 1;
#X obj 287 719 pow 2;
#X obj 287 743 lop~ 10;
#X obj 202 642 / 4;
#X obj 202 668 clip 0 120;
#X obj 24 525 s \$0-buttons;
#X obj 24 418 route 0 1 2 3 4 5 6 7 8 9 10 11 12 13 14 15, f 87;
#X obj 24 444 tgl 20 0 empty empty empty 0 -10 0 12 #fcfcc8 #000000 #000000 0 1;
#X obj 63 444 tgl 20 0 empty empty empty 0 -10 0 12 #fcfcc8 #000000 #000000 0 1;
#X obj 100 444 tgl 20 0 empty empty empty 0 -10 0 12 #fcfcc8 #000000 #000000 0 1;
#X obj 136 444 tgl 20 0 empty empty empty 0 -10 0 12 #fcfcc8 #000000 #000000 0 1;
#X obj 175 444 tgl 20 0 empty empty empty 0 -10 0 12 #fcfcc8 #000000 #000000 0 1;
#X obj 212 444 tgl 20 0 empty empty empty 0 -10 0 12 #fcfcc8 #000000 #000000 0 1;
#X obj 249 444 tgl 20 0 empty empty empty 0 -10 0 12 #fcfcc8 #000000 #000000 0 1;
#X obj 288 444 tgl 20 0 empty empty empty 0 -10 0 12 #fcfcc8 #000000 #000000 0 1;
#X obj 325 444 tgl 20 0 empty empty empty 0 -10 0 12 #fcfcc8 #000000 #000000 0 1;
#X obj 361 444 tgl 20 0 empty empty empty 0 -10 0 12 #fcfcc8 #000000 #000000 0 1;
#X obj 400 444 tgl 20 0 empty empty empty 0 -10 0 12 #fcfcc8 #000000 #000000 0 1;
#X obj 437 444 tgl 20 0 empty empty empty 0 -10 0 12 #fcfcc8 #000000 #000000 0 1;
#X obj 481 444 tgl 20 0 empty empty empty 0 -10 0 12 #fcfcc8 #000000 #000000 0 1;
#X obj 517 444 tgl 20 0 empty empty empty 0 -10 0 12 #fcfcc8 #000000 #000000 0 1;
#X obj 556 444 tgl 20 0 empty empty empty 0 -10 0 12 #fcfcc8 #000000 #000000 0 1;
#X obj 593 444 tgl 20 0 empty empty empty 0 -10 0 12 #fcfcc8 #000000 #000000 0 1;
#X obj 24 650 noise~;
#X obj 24 675 *~;
#X obj 24 725 dac~;
#X msg 24 469 0 \$1;
#X msg 63 469 1 \$1;
#X msg 100 469 2 \$1;
#X msg 136 469 3 \$1;
#X msg 175 469 4 \$1;
#X msg 212 469 5 \$1;
#X msg 249 469 6 \$1;
#X msg 288 469 7 \$1;
#X msg 325 469 8 \$1;
#X msg 361 469 9 \$1;
#X msg 400 469 10 \$1;
#X msg 437 469 11 \$1;
#X msg 481 469 12 \$1;
#X msg 517 469 13 \$1;
#X msg 556 469 14 \$1;
#X msg 593 469 15 \$1;
#X obj 72 649 r \$0-buttons;
#X msg 72 674 \$2;
#X obj 24 700 *~ 0.1;
#X obj 24 219 route S E;
#X msg 470 308 set \$1;
#X obj 470 359 i;
#X msg 540 306 0;
#X connect 2 0 4 1;
#X connect 5 0 83 0;
#X connect 9 0 10 0;
#X connect 11 0 13 0;
#X connect 12 0 20 0;
#X connect 13 0 14 1;
#X connect 13 1 14 0;
#X connect 14 0 17 0;
#X connect 16 0 85 0;
#X connect 17 0 18 0;
#X connect 18 0 19 0;
#X connect 19 0 24 0;
#X connect 20 0 11 0;
#X connect 21 0 22 0;
#X connect 22 0 23 0;
#X connect 23 0 15 0;
#X connect 23 0 28 0;
#X connect 23 0 84 0;
#X connect 24 0 25 0;
#X connect 25 0 26 0;
#X connect 26 0 21 0;
#X connect 29 0 11 1;
#X connect 30 0 12 0;
#X connect 31 0 32 0;
#X connect 32 0 37 0;
#X connect 32 0 41 0;
#X connect 33 0 34 0;
#X connect 34 0 35 0;
#X connect 35 0 36 0;
#X connect 36 0 82 0;
#X connect 37 0 38 0;
#X connect 38 0 39 0;
#X connect 39 0 40 0;
#X connect 40 0 36 1;
#X connect 41 0 42 0;
#X connect 42 0 33 0;
#X connect 44 0 45 0;
#X connect 44 1 46 0;
#X connect 44 2 47 0;
#X connect 44 3 48 0;
#X connect 44 4 49 0;
#X connect 44 5 50 0;
#X connect 44 6 51 0;
#X connect 44 7 52 0;
#X connect 44 8 53 0;
#X connect 44 9 54 0;
#X connect 44 10 55 0;
#X connect 44 11 56 0;
#X connect 44 12 57 0;
#X connect 44 13 58 0;
#X connect 44 14 59 0;
#X connect 44 15 60 0;
#X connect 45 0 64 0;
#X connect 46 0 65 0;
#X connect 47 0 66 0;
#X connect 48 0 67 0;
#X connect 49 0 68 0;
#X connect 50 0 69 0;
#X connect 51 0 70 0;
#X connect 52 0 71 0;
#X connect 53 0 72 0;
#X connect 54 0 73 0;
#X connect 55 0 74 0;
#X connect 56 0 75 0;
#X connect 57 0 76 0;
#X connect 58 0 77 0;
#X connect 59 0 78 0;
#X connect 60 0 79 0;
#X connect 61 0 62 0;
#X connect 62 0 82 0;
#X connect 64 0 43 0;
#X connect 65 0 43 0;
#X connect 66 0 43 0;
#X connect 67 0 43 0;
#X connect 68 0 43 0;
#X connect 69 0 43 0;
#X connect 70 0 43 0;
#X connect 71 0 43 0;
#X connect 72 0 43 0;
#X connect 73 0 43 0;
#X connect 74 0 43 0;
#X connect 75 0 43 0;
#X connect 76 0 43 0;
#X connect 77 0 43 0;
#X connect 78 0 43 0;
#X connect 79 0 43 0;
#X connect 80 0 81 0;
#X connect 81 0 62 1;
#X connect 82 0 63 0;
#X connect 82 0 63 1;
#X connect 83 0 44 0;
#X connect 83 1 27 0;
#X connect 83 1 7 0;
#X connect 83 2 6 0;
#X connect 84 0 16 0;
#X connect 85 0 28 0;
#X connect 85 0 15 0;
#X connect 86 0 16 0;
