#N canvas 129 22 685 886 12;
#X declare -path Fraise;
#X obj 20 18 declare -path Fraise;
#X obj 25 62 pied/pied 1;
#X msg 309 177 Ehello;
#X obj 24 139 fruit/fruit 1 machines1 0 fw_machines;
#X obj 193 204 fruit/send machines1;
#X obj 24 194 fruit/receive machines1;
#X obj 133 250 print from_machines1;
#X obj 46 512 route 0 1 2 3 4 5 6 7 8 9 10 11 12 13 14 15, f 82;
#X obj 46 538 tgl 20 0 empty empty empty 0 -10 0 12 #fcfcfc #000000 #000000 0 1;
#X obj 81 538 tgl 20 0 empty empty empty 0 -10 0 12 #fcfcfc #000000 #000000 0 1;
#X obj 117 538 tgl 20 0 empty empty empty 0 -10 0 12 #fcfcfc #000000 #000000 0 1;
#X obj 153 538 tgl 20 0 empty empty empty 0 -10 0 12 #fcfcfc #000000 #000000 0 1;
#X obj 188 538 tgl 20 0 empty empty empty 0 -10 0 12 #fcfcfc #000000 #000000 0 1;
#X obj 223 538 tgl 20 0 empty empty empty 0 -10 0 12 #fcfcfc #000000 #000000 0 1;
#X obj 259 538 tgl 20 0 empty empty empty 0 -10 0 12 #fcfcfc #000000 #000000 0 1;
#X obj 295 538 tgl 20 0 empty empty empty 0 -10 0 12 #fcfcfc #000000 #000000 0 1;
#X obj 331 538 tgl 20 0 empty empty empty 0 -10 0 12 #fcfcfc #000000 #000000 0 1;
#X obj 366 538 tgl 20 0 empty empty empty 0 -10 0 12 #fcfcfc #000000 #000000 0 1;
#X obj 402 538 tgl 20 0 empty empty empty 0 -10 0 12 #fcfcfc #000000 #000000 0 1;
#X obj 438 538 tgl 20 0 empty empty empty 0 -10 0 12 #fcfcfc #000000 #000000 0 1;
#X obj 473 538 tgl 20 0 empty empty empty 0 -10 0 12 #fcfcfc #000000 #000000 0 1;
#X obj 508 538 tgl 20 0 empty empty empty 0 -10 0 12 #fcfcfc #000000 #000000 0 1;
#X obj 544 538 tgl 20 0 empty empty empty 0 -10 0 12 #fcfcfc #000000 #000000 0 1;
#X obj 580 538 tgl 20 0 empty empty empty 0 -10 0 12 #fcfcfc #000000 #000000 0 1;
#X obj 24 219 route P S E;
#X floatatom 144 295 9 0 0 0 - - - 0;
#X obj 256 18 send_OSC \$0;
#X obj 48 294 s \$0-buttons;
#X obj 46 485 r \$0-buttons;
#X obj 56 574 noise~;
#X obj 56 599 *~;
#X obj 56 624 *~ 0.2;
#X obj 56 649 dac~;
#X obj 234 614 tgl 20 0 empty empty empty 0 -10 0 12 #fcfcfc #000000 #000000 0 1;
#X obj 234 645 switch~;
#X obj 388 163 f;
#X obj 388 112 tgl 20 0 empty empty empty 0 -10 0 12 #fcfcfc #000000 #000000 0 1;
#X obj 388 192 t f f;
#X obj 388 217 -;
#X floatatom 455 441 19 0 0 0 - - - 0;
#X obj 459 418 hsl 170 20 -500 500 0 0 empty empty empty -2 -10 0 12 #fcfcfc #000000 #000000 0 1;
#X obj 388 242 + 32768;
#X obj 388 267 mod 65536;
#X obj 388 292 - 32768;
#X obj 388 138 metro 20;
#X obj 388 393 * 10;
#X obj 388 418 i;
#X obj 388 443 change;
#X obj 388 320 lowpass_ctl 0.5;
#X obj 388 344 lowpass_ctl 0.5;
#X obj 388 368 lowpass_ctl 0.5;
#X obj 145 319 s \$0-encoder;
#X obj 388 469 s \$0-encoder_speed;
#X obj 419 162 r \$0-encoder;
#X obj 388 88 loadbang;
#X obj 368 597 r \$0-encoder_speed;
#X obj 368 622 abs;
#X obj 368 699 mtof;
#X obj 368 724 lop~ 10;
#X obj 368 749 phasor~;
#X obj 368 774 *~;
#X obj 453 674 / 100;
#X obj 453 699 clip 0 1;
#X obj 453 724 pow 2;
#X obj 453 748 lop~ 10;
#X obj 368 647 / 4;
#X obj 368 673 clip 0 120;
#X connect 2 0 4 1;
#X connect 5 0 24 0;
#X connect 7 0 8 0;
#X connect 7 1 9 0;
#X connect 7 2 10 0;
#X connect 7 3 11 0;
#X connect 7 4 12 0;
#X connect 7 5 13 0;
#X connect 7 6 14 0;
#X connect 7 7 15 0;
#X connect 7 8 16 0;
#X connect 7 9 17 0;
#X connect 7 10 18 0;
#X connect 7 11 19 0;
#X connect 7 12 20 0;
#X connect 7 13 21 0;
#X connect 7 14 22 0;
#X connect 7 15 23 0;
#X connect 10 0 30 1;
#X connect 24 1 27 0;
#X connect 24 2 25 0;
#X connect 24 2 51 0;
#X connect 24 3 6 0;
#X connect 28 0 7 0;
#X connect 29 0 30 0;
#X connect 30 0 31 0;
#X connect 31 0 32 0;
#X connect 33 0 34 0;
#X connect 35 0 37 0;
#X connect 36 0 44 0;
#X connect 37 0 38 1;
#X connect 37 1 38 0;
#X connect 38 0 41 0;
#X connect 41 0 42 0;
#X connect 42 0 43 0;
#X connect 43 0 48 0;
#X connect 44 0 35 0;
#X connect 45 0 46 0;
#X connect 46 0 47 0;
#X connect 47 0 39 0;
#X connect 47 0 40 0;
#X connect 47 0 52 0;
#X connect 48 0 49 0;
#X connect 49 0 50 0;
#X connect 50 0 45 0;
#X connect 53 0 35 1;
#X connect 54 0 36 0;
#X connect 55 0 56 0;
#X connect 56 0 61 0;
#X connect 56 0 65 0;
#X connect 57 0 58 0;
#X connect 58 0 59 0;
#X connect 59 0 60 0;
#X connect 60 0 31 0;
#X connect 61 0 62 0;
#X connect 62 0 63 0;
#X connect 63 0 64 0;
#X connect 64 0 60 1;
#X connect 65 0 66 0;
#X connect 66 0 57 0;
