#N canvas 1104 296 450 300 12;
#X obj 66 57 -;
#X obj 66 107 +;
#X obj 66 132 f;
#X obj 66 27 inlet;
#X obj 66 157 outlet;
#X obj 66 82 * \$1;
#X obj 145 24 inlet;
#X connect 0 0 5 0;
#X connect 1 0 2 0;
#X connect 2 0 1 1;
#X connect 2 0 0 1;
#X connect 2 0 4 0;
#X connect 3 0 0 0;
#X connect 5 0 1 0;
#X connect 6 0 5 1;
