#N canvas 1079 73 623 444 10;
#X obj 20 352 netsend -b -u;
#X obj 20 187 list prepend send;
#X obj 20 211 list trim;
#X obj 38 272 loadbang;
#X obj 20 376 tgl 15 0 empty empty connected 17 7 0 10 #fcfcfc #000000 #000000 0 1;
#X msg 39 325 disconnect;
#X msg 38 296 connect localhost 8000;
#X obj 20 27 r \$1-buttons;
#X obj 324 26 r \$1-encoder;
#X obj 324 115 oscformat -f i /enc;
#X obj 467 26 r \$0-encoder_speed;
#X obj 467 115 oscformat -f i /speed;
#X msg 20 51 \$2 \$1;
#X obj 20 72 route 1 0, f 47;
#X obj 20 115 oscformat -f i /btn_on;
#X obj 20 94 + 1;
#X obj 159 95 + 1;
#X obj 159 116 oscformat -f i /btn_off;
#X connect 0 0 4 0;
#X connect 1 0 2 0;
#X connect 2 0 0 0;
#X connect 3 0 6 0;
#X connect 5 0 0 0;
#X connect 6 0 0 0;
#X connect 7 0 12 0;
#X connect 8 0 9 0;
#X connect 9 0 1 0;
#X connect 10 0 11 0;
#X connect 11 0 1 0;
#X connect 12 0 13 0;
#X connect 13 0 15 0;
#X connect 13 1 16 0;
#X connect 14 0 1 0;
#X connect 15 0 14 0;
#X connect 16 0 17 0;
#X connect 17 0 1 0;
