#N canvas 1140 71 760 444 10;
#X obj 20 352 netsend -b -u;
#X obj 20 187 list prepend send;
#X obj 20 211 list trim;
#X obj 38 272 loadbang;
#X obj 20 376 tgl 15 0 empty empty connected 17 7 0 10 #fcfcfc #000000 #000000 0 1;
#X msg 39 325 disconnect;
#X msg 38 296 connect localhost 8000;
#X obj 20 27 r \$1-buttons;
#X obj 324 26 r \$1-encoder;
#X obj 477 26 r \$0-encoder_speed;
#X msg 20 51 \$2 \$1;
#X obj 20 72 route 1 0, f 47;
#X obj 20 115 oscformat -f i /btn_on;
#X obj 20 94 + 1;
#X obj 159 95 + 1;
#X obj 159 116 oscformat -f i /btn_off;
#X obj 600 26 r \$1-encoder;
#X obj 477 52 pack f f, f 21;
#X obj 477 84 list prepend 1;
#X obj 477 115 oscformat -f iii /wheel;
#X obj 324 115 oscformat -f i /wheelpos;
#X connect 0 0 4 0;
#X connect 1 0 2 0;
#X connect 2 0 0 0;
#X connect 3 0 6 0;
#X connect 5 0 0 0;
#X connect 6 0 0 0;
#X connect 7 0 10 0;
#X connect 8 0 20 0;
#X connect 9 0 17 0;
#X connect 10 0 11 0;
#X connect 11 0 13 0;
#X connect 11 1 14 0;
#X connect 12 0 1 0;
#X connect 13 0 12 0;
#X connect 14 0 15 0;
#X connect 15 0 1 0;
#X connect 16 0 17 1;
#X connect 17 0 18 0;
#X connect 18 0 19 0;
#X connect 19 0 1 0;
#X connect 20 0 1 0;
