#N canvas 139 15 739 635 12;
#X declare -path Fraise;
#X obj 13 15 declare -path Fraise;
#X obj 13 40 pied/pied 1;
#X obj 12 197 route P S;
#X obj 12 117 fruit/fruit 1 fruit1 1 fw_tube;
#X obj 12 172 fruit/receive fruit1;
#X obj 163 173 fruit/send fruit1;
#X msg 279 146 Ehello;
#X obj 72 221 print from_fruit1;
#X obj 352 148 bng 20 110 50 0 empty empty 0__1__2__3__4__5__6__7__8__9__10_11_12_13_14_15 5 30 0 12 #fcfcfc #000000 #000000;
#X obj 373 148 bng 20 110 50 0 empty empty empty 0 -10 0 12 #fcfcfc #000000 #000000;
#X obj 394 148 bng 20 110 50 0 empty empty empty 0 -10 0 12 #fcfcfc #000000 #000000;
#X obj 415 148 bng 20 110 50 0 empty empty empty 0 -10 0 12 #fcfcfc #000000 #000000;
#X obj 352 123 sel 0 1 2 3 4 5 6 7 8 9 10 11 12 13 14 15, f 49;
#X obj 437 148 bng 20 110 50 0 empty empty empty 0 -10 0 12 #fcfcfc #000000 #000000;
#X obj 458 148 bng 20 110 50 0 empty empty empty 0 -10 0 12 #fcfcfc #000000 #000000;
#X obj 479 148 bng 20 110 50 0 empty empty empty 0 -10 0 12 #fcfcfc #000000 #000000;
#X obj 500 148 bng 20 110 50 0 empty empty empty 0 -10 0 12 #fcfcfc #000000 #000000;
#X obj 522 148 bng 20 110 50 0 empty empty empty 0 -10 0 12 #fcfcfc #000000 #000000;
#X obj 543 148 bng 20 110 50 0 empty empty empty 0 -10 0 12 #fcfcfc #000000 #000000;
#X obj 564 148 bng 20 110 50 0 empty empty empty 0 -10 0 12 #fcfcfc #000000 #000000;
#X obj 585 148 bng 20 110 50 0 empty empty empty 0 -10 0 12 #fcfcfc #000000 #000000;
#X obj 607 148 bng 20 110 50 0 empty empty empty 0 -10 0 12 #fcfcfc #000000 #000000;
#X obj 628 148 bng 20 110 50 0 empty empty empty 0 -10 0 12 #fcfcfc #000000 #000000;
#X obj 649 148 bng 20 110 50 0 empty empty empty 0 -10 0 12 #fcfcfc #000000 #000000;
#X obj 670 148 bng 20 110 50 0 empty empty empty 0 -10 0 12 #fcfcfc #000000 #000000;
#X obj 464 338 send_OSC \$0;
#X obj 352 37 hradio 20 1 0 16 empty empty 0__1__2__3__4__5__6__7__8__9_10_11_12_13_14_15 0 -10 0 12 #feffc6 #000000 #000000 0;
#X obj 352 100 r \$0-buttons;
#X obj 352 62 s \$0-buttons;
#X text 305 40 TEST:;
#X obj 12 608 s \$0-buttons;
#X obj 12 244 matrix;
#X obj 234 216 hradio 20 1 0 16 empty empty 0__1__2__3__4__5__6__7__8__9_10_11_12_13_14_15 0 -10 0 12 #feffc6 #000000 #000000 0;
#X text 558 217 test matrix;
#X connect 2 0 31 0;
#X connect 2 2 7 0;
#X connect 4 0 2 0;
#X connect 6 0 5 1;
#X connect 12 0 8 0;
#X connect 12 1 9 0;
#X connect 12 2 10 0;
#X connect 12 3 11 0;
#X connect 12 4 13 0;
#X connect 12 5 14 0;
#X connect 12 6 15 0;
#X connect 12 7 16 0;
#X connect 12 8 17 0;
#X connect 12 9 18 0;
#X connect 12 10 19 0;
#X connect 12 11 20 0;
#X connect 12 12 21 0;
#X connect 12 13 22 0;
#X connect 12 14 23 0;
#X connect 12 15 24 0;
#X connect 26 0 28 0;
#X connect 27 0 12 0;
#X connect 31 0 30 0;
#X connect 32 0 31 0;
