#N canvas 490 37 638 375 12;
#X declare -path Fraise;
#X obj 20 18 declare -path Fraise;
#X obj 25 62 pied/pied 1;
#X obj 24 219 route P S;
#X obj 24 139 fruit/fruit 1 fruit1 1 fw_tube;
#X obj 24 194 fruit/receive fruit1;
#X obj 193 204 fruit/send fruit1;
#X msg 309 177 Ehello;
#X obj 84 243 print from_fruit1;
#X obj 24 301 bng 20 250 50 0 empty empty empty 0 -10 0 12 #fcfcfc #000000 #000000;
#X obj 59 301 bng 20 250 50 0 empty empty empty 0 -10 0 12 #fcfcfc #000000 #000000;
#X obj 95 301 bng 20 250 50 0 empty empty empty 0 -10 0 12 #fcfcfc #000000 #000000;
#X obj 131 301 bng 20 250 50 0 empty empty empty 0 -10 0 12 #fcfcfc #000000 #000000;
#X obj 24 276 sel 0 1 2 3 4 5 6 7 8 9 10 11 12 13 14 15, f 82;
#X obj 165 302 bng 20 250 50 0 empty empty empty 0 -10 0 12 #fcfcfc #000000 #000000;
#X obj 200 302 bng 20 250 50 0 empty empty empty 0 -10 0 12 #fcfcfc #000000 #000000;
#X obj 236 302 bng 20 250 50 0 empty empty empty 0 -10 0 12 #fcfcfc #000000 #000000;
#X obj 272 302 bng 20 250 50 0 empty empty empty 0 -10 0 12 #fcfcfc #000000 #000000;
#X obj 309 301 bng 20 250 50 0 empty empty empty 0 -10 0 12 #fcfcfc #000000 #000000;
#X obj 344 301 bng 20 250 50 0 empty empty empty 0 -10 0 12 #fcfcfc #000000 #000000;
#X obj 380 301 bng 20 250 50 0 empty empty empty 0 -10 0 12 #fcfcfc #000000 #000000;
#X obj 416 301 bng 20 250 50 0 empty empty empty 0 -10 0 12 #fcfcfc #000000 #000000;
#X obj 450 302 bng 20 250 50 0 empty empty empty 0 -10 0 12 #fcfcfc #000000 #000000;
#X obj 485 302 bng 20 250 50 0 empty empty empty 0 -10 0 12 #fcfcfc #000000 #000000;
#X obj 521 302 bng 20 250 50 0 empty empty empty 0 -10 0 12 #fcfcfc #000000 #000000;
#X obj 557 302 bng 20 250 50 0 empty empty empty 0 -10 0 12 #fcfcfc #000000 #000000;
#X obj 9 339 s \$0-buttons;
#X obj 383 130 send_OSC \$0;
#X connect 2 0 12 0;
#X connect 2 0 25 0;
#X connect 2 2 7 0;
#X connect 4 0 2 0;
#X connect 6 0 5 1;
#X connect 12 0 8 0;
#X connect 12 1 9 0;
#X connect 12 2 10 0;
#X connect 12 3 11 0;
#X connect 12 4 13 0;
#X connect 12 5 14 0;
#X connect 12 6 15 0;
#X connect 12 7 16 0;
#X connect 12 8 17 0;
#X connect 12 9 18 0;
#X connect 12 10 19 0;
#X connect 12 11 20 0;
#X connect 12 12 21 0;
#X connect 12 13 22 0;
#X connect 12 14 23 0;
#X connect 12 15 24 0;
