#N canvas 311 29 921 573 12;
#X obj 28 15 inlet;
#X obj 28 210 outlet;
#X obj 250 19 table \$0-matrix 16;
#X msg 28 75 0 \, 1 \, 2 \, 3 \, 4 \, 5 \, 6 \, 7 \, 8 \, 9 \, 10 \, 11 \, 12 \, 13 \, 14 \, 15;
#X obj 28 125 tabread \$0-matrix;
#X obj 28 99 t f f;
#X obj 28 49 t b f, f 9;
#X obj 28 149 sel -1, f 9;
#X obj 28 173 f, f 5;
#X msg 573 278 0 0 1 2 3 4 5 6 7 8 9 10 11 12 13 14 15;
#X obj 550 332 s \$0-matrix;
#X obj 149 206 hradio 20 1 0 17 \$0-out0-snd \$0-out0-rcv 0__1__2__3__4__5__6__7__8__9_10_11_12_13_14_15_N 0 -10 0 12 #feffc6 #000000 #000000 0;
#X obj 149 226 hradio 20 1 0 17 \$0-out1-snd \$0-out1-rcv out1 -37 10 0 12 #feffc6 #000000 #000000 0;
#X text 110 207 out0;
#X obj 149 246 hradio 20 1 0 17 \$0-out2-snd \$0-out2-rcv out2 -37 10 0 12 #feffc6 #000000 #000000 0;
#X obj 149 266 hradio 20 1 0 17 \$0-out3-snd \$0-out3-rcv out3 -37 10 0 12 #feffc6 #000000 #000000 0;
#X obj 149 286 hradio 20 1 0 17 \$0-out4-snd \$0-out4-rcv out4 -37 10 0 12 #feffc6 #000000 #000000 0;
#X obj 149 306 hradio 20 1 0 17 \$0-out5-snd \$0-out5-rcv out5 -37 10 0 12 #feffc6 #000000 #000000 0;
#X obj 149 326 hradio 20 1 0 17 \$0-out6-snd \$0-out6-rcv out6 -37 10 0 12 #feffc6 #000000 #000000 0;
#X obj 149 346 hradio 20 1 0 17 \$0-out7-snd \$0-out7-rcv out7 -37 10 0 12 #feffc6 #000000 #000000 0;
#X obj 149 366 hradio 20 1 0 17 \$0-out8-snd \$0-out8-rcv out8 -37 10 0 12 #feffc6 #000000 #000000 0;
#X obj 149 386 hradio 20 1 0 17 \$0-out9-snd \$0-out9-rcv out9 -37 10 0 12 #feffc6 #000000 #000000 0;
#X obj 149 406 hradio 20 1 0 17 \$0-out10-snd \$0-out10-rcv out10 -37 10 0 12 #feffc6 #000000 #000000 0;
#X obj 149 426 hradio 20 1 0 17 \$0-out11-snd \$0-out11-rcv out11 -37 10 0 12 #feffc6 #000000 #000000 0;
#X obj 149 446 hradio 20 1 0 17 \$0-out12-snd \$0-out12-rcv out12 -37 10 0 12 #feffc6 #000000 #000000 0;
#X obj 149 466 hradio 20 1 0 17 \$0-out13-snd \$0-out13-rcv out13 -37 10 0 12 #feffc6 #000000 #000000 0;
#X obj 149 486 hradio 20 1 0 17 \$0-out14-snd \$0-out14-rcv out14 -37 10 0 12 #feffc6 #000000 #000000 0;
#X obj 149 506 hradio 20 1 0 17 \$0-out15-snd \$0-out15-rcv out15 -37 10 0 12 #feffc6 #000000 #000000 0;
#X msg 528 72 0 \, 1 \, 2 \, 3 \, 4 \, 5 \, 6 \, 7 \, 8 \, 9 \, 10 \, 11 \, 12 \, 13 \, 14 \, 15;
#X obj 528 96 t f f, f 19;
#X obj 528 120 tabread \$0-matrix;
#X obj 528 144 list prepend 0, f 19;
#X obj 528 47 r \$0-update-gui;
#X obj 526 398 r \$0-out-snd;
#X obj 526 506 s \$0-matrix;
#X obj 559 428 b;
#X msg 559 476 write matrix_settings.txt;
#X obj 527 231 loadbang;
#X msg 550 302 read matrix_settings.txt;
#X obj 527 354 s \$0-update-gui;
#X obj 527 254 t b b b;
#X obj 528 18 clone matrix_dispatch 16 \$0-out;
#X obj 528 168 s \$0-out-rcv;
#X obj 559 452 del 200;
#X connect 0 0 6 0;
#X connect 3 0 5 0;
#X connect 4 0 7 0;
#X connect 5 0 4 0;
#X connect 5 1 8 1;
#X connect 6 0 3 0;
#X connect 6 1 7 1;
#X connect 7 0 8 0;
#X connect 8 0 1 0;
#X connect 9 0 10 0;
#X connect 28 0 29 0;
#X connect 29 0 30 0;
#X connect 29 1 31 1;
#X connect 30 0 31 0;
#X connect 31 0 42 0;
#X connect 32 0 28 0;
#X connect 33 0 35 0;
#X connect 33 0 34 0;
#X connect 35 0 43 0;
#X connect 36 0 34 0;
#X connect 37 0 40 0;
#X connect 38 0 10 0;
#X connect 40 0 39 0;
#X connect 40 1 38 0;
#X connect 40 2 9 0;
#X connect 43 0 36 0;
#X coords 0 -1 1 1 382 360 1 110 180;
