#N canvas 1012 271 368 338 10;
#X obj 21 281 netsend -b -u;
#X obj 21 108 list prepend send;
#X obj 21 132 list trim;
#X obj 41 203 loadbang;
#X obj 21 305 tgl 15 0 empty empty connected 17 7 0 10 #fcfcfc #000000 #000000 0 1;
#X msg 42 253 disconnect;
#X msg 41 227 connect localhost 8000;
#X obj 21 23 r \$1-buttons;
#X obj 21 50 oscformat -f i /btn_on;
#X obj 186 280 netsend -b -u;
#X obj 206 202 loadbang;
#X obj 186 304 tgl 15 0 empty empty connected 17 7 0 10 #fcfcfc #000000 #000000 0 1;
#X msg 207 252 disconnect;
#X msg 206 226 connect localhost 8001;
#X obj 21 155 t a a, f 28;
#X connect 0 0 4 0;
#X connect 1 0 2 0;
#X connect 2 0 14 0;
#X connect 3 0 6 0;
#X connect 5 0 0 0;
#X connect 6 0 0 0;
#X connect 7 0 8 0;
#X connect 8 0 1 0;
#X connect 9 0 11 0;
#X connect 10 0 13 0;
#X connect 12 0 9 0;
#X connect 13 0 9 0;
#X connect 14 0 0 0;
#X connect 14 1 9 0;
