#N canvas 696 81 669 344 10;
#X declare -path Fraise -stdpath Fraise;
#X obj 16 61 declare -path Fraise -stdpath Fraise;
#X obj 16 83 pied/pied 0 41424;
#X obj 17 161 fruit/fruit 1 templar1 1 fw-lidar;
#X obj 256 35 monitor \$0 1;
#X obj 335 35 monitor \$0 2;
#X obj 414 35 monitor \$0 3;
#X obj 493 35 monitor \$0 4;
#X obj 572 35 monitor \$0 5;
#X text 272 17 unit is centimeter:;
#X obj 255 251 bng 60 250 50 0 \$0-setzero empty ZERO 8 30 0 18 -258113
-1 -257985;
#X obj 330 251 hsl 150 60 2 20 0 0 lidar_threshold-snd lidar_threshold-rcv
threshold:5 5 30 0 18 -262144 -1 -1 2483 1;
#N canvas 281 235 302 224 stuff 1;
#X obj 24 17 table lidar_vals 5;
#N canvas 72 468 1268 662 tests/set_address 1;
#X obj 269 131 tgl 15 0 empty empty empty 17 7 0 10 -262144 -1 -1 0
1;
#X msg 113 173 c 40 c \$1;
#X msg 113 137 16;
#X obj 183 88 tgl 15 0 empty empty empty 17 7 0 10 -262144 -1 -1 0
1;
#X obj 183 111 metro 100;
#X msg 183 134 17;
#X msg 594 150 16;
#X msg 630 152 17;
#X msg 572 183 c 42 c \$1;
#X text 637 182 reboot;
#X obj 113 94 tgl 15 0 empty empty empty 17 7 0 10 -262144 -1 -1 0
1;
#X obj 113 115 metro 100;
#X text 18 9 addresses: 20 21 22 23 24;
#X msg 84 58 20;
#X msg 113 58 21;
#X msg 142 58 22;
#X msg 169 59 23;
#X msg 198 58 24;
#X obj 84 79 f;
#X msg 364 106 20;
#X msg 393 106 21;
#X msg 422 106 22;
#X msg 449 107 23;
#X msg 478 106 24;
#X obj 364 127 f;
#X msg 364 150 c 41 c 16 c \$1;
#X obj 484 157 f;
#X obj 494 135 bng 15 250 50 0 empty empty save 17 7 0 10 -262144 -1
-1;
#X msg 485 176 c 43 c \$1;
#X obj 364 198 t a;
#X msg 572 106 20;
#X msg 601 106 21;
#X msg 630 106 22;
#X msg 657 107 23;
#X msg 686 106 24;
#X obj 572 127 f;
#X msg 265 179 c 20;
#X obj 265 154 metro 200;
#X msg 10 179 c 100;
#X text 273 195 get all;
#X text 120 192 get one;
#X text 6 165 restart i2c;
#X text 360 87 change address;
#X floatatom 164 466 5 0 0 0 midi - -;
#X obj 166 529 mtof;
#X floatatom 166 551 0 0 0 0 Hz - -;
#X obj 164 582 osc~;
#X obj 164 604 *~ 0.2;
#X obj 440 663 dac~;
#X obj 151 358 route T L;
#X obj 163 420 unpack f f;
#X floatatom 111 470 5 0 0 0 - - -;
#X obj 162 443 / 2;
#X floatatom 210 459 5 0 0 0 - - -;
#X floatatom 207 391 5 0 0 0 - - -;
#X obj 165 497 + 32;
#X obj 288 419 route l;
#X obj 288 439 unpack f f;
#X floatatom 288 461 5 0 0 0 - - -;
#X floatatom 346 463 5 0 0 0 - - -;
#X obj 267 478 bng 15 250 50 0 empty empty empty 17 7 0 10 -262144
-1 -1;
#X obj 113 398 print;
#X obj 194 283 fruit/send templar1;
#X obj 150 336 fruit/receive templar1;
#X obj 488 253 r lidars_updated;
#X obj 488 296 array get lidar_ons;
#X obj 488 317 unpack f f f f f;
#X obj 446 501 *~;
#X obj 517 504 *~;
#X obj 577 505 *~;
#X obj 633 506 *~;
#X obj 692 506 *~;
#X obj 473 553 *~ 0.2;
#X obj 475 363 change;
#X obj 446 480 osc~ 800;
#X obj 516 482 osc~ 1000;
#X obj 577 484 osc~ 1200;
#X obj 633 485 osc~ 1400;
#X obj 692 485 osc~ 1600;
#X obj 538 562 *~ 1;
#X obj 475 384 sel 1 0;
#X msg 475 405 1 1;
#X msg 500 407 0 150;
#X obj 614 588 rev3~ 100 82;
#X obj 542 364 change;
#X obj 542 385 sel 1 0;
#X msg 542 406 1 1;
#X msg 567 408 0 150;
#X obj 612 362 change;
#X obj 612 383 sel 1 0;
#X msg 612 404 1 1;
#X msg 637 406 0 150;
#X obj 679 363 change;
#X obj 679 384 sel 1 0;
#X msg 679 405 1 1;
#X msg 704 407 0 150;
#X obj 754 361 change;
#X obj 754 382 sel 1 0;
#X msg 754 403 1 1;
#X msg 779 405 0 150;
#X obj 616 284 switch~;
#X obj 616 261 tgl 15 0 empty empty empty 17 7 0 10 -262144 -1 -1 0
1;
#X obj 488 275 spigot;
#X obj 754 424 line~;
#X obj 678 425 line~;
#X obj 612 425 line~;
#X obj 542 427 line~;
#X obj 475 426 line~;
#X obj 424 393 tgl 15 0 empty empty empty 17 7 0 10 -262144 -1 -1 0
1;
#X obj 860 267 b;
#X msg 860 288 666;
#X floatatom 860 309 5 0 0 0 - - -;
#X msg 898 288 0;
#X obj 696 255 tgl 15 0 empty empty empty 17 7 0 10 -262144 -1 -1 0
1;
#X msg 50 296 c 21 c \$1;
#X obj 49 275 tgl 15 0 empty empty auto_onoff 17 7 0 10 -262144 -1
-1 0 1;
#X msg 776 185 c 110 c \$1;
#X obj 776 157 tgl 15 0 empty empty empty 17 7 0 10 -262144 -1 -1 0
1;
#X obj 776 36 r LIDAR_POWEROFF;
#X obj 776 89 t b b, f 10;
#X obj 776 110 del 200;
#X msg 833 109 1;
#X msg 776 131 0;
#X obj 749 68 bng 15 250 50 0 empty empty empty 17 7 0 10 -262144 -1
-1;
#X obj 776 62 del 10;
#X obj 960 15 loadbang;
#X obj 960 40 t b b;
#X msg 987 62 clear \, read disconnection_count.txt;
#X obj 960 128 s \$0-disconnection_count_val;
#X obj 968 163 v \$0-disconnection_count_val;
#X obj 968 184 + 1;
#X obj 1006 225 v \$0-disconnection_count_val;
#X obj 960 107 text get disconnection_count;
#X obj 987 248 text set disconnection_count;
#X obj 987 83 text define disconnection_count;
#X obj 968 205 t b f f;
#X msg 968 278 write disconnection_count.txt;
#X obj 903 160 bng 15 250 50 0 empty empty empty 17 7 0 10 -262144
-1 -1;
#X msg 929 210 0;
#X floatatom 889 211 5 0 0 0 - - -;
#X connect 0 0 37 0;
#X connect 1 0 62 0;
#X connect 2 0 1 0;
#X connect 3 0 4 0;
#X connect 4 0 5 0;
#X connect 5 0 1 0;
#X connect 6 0 8 0;
#X connect 7 0 8 0;
#X connect 8 0 62 0;
#X connect 10 0 11 0;
#X connect 11 0 2 0;
#X connect 13 0 18 0;
#X connect 14 0 18 0;
#X connect 15 0 18 0;
#X connect 16 0 18 0;
#X connect 17 0 18 0;
#X connect 18 0 1 0;
#X connect 19 0 24 0;
#X connect 20 0 24 0;
#X connect 21 0 24 0;
#X connect 22 0 24 0;
#X connect 23 0 24 0;
#X connect 24 0 25 0;
#X connect 24 0 26 1;
#X connect 25 0 29 0;
#X connect 26 0 28 0;
#X connect 27 0 26 0;
#X connect 28 0 29 0;
#X connect 29 0 62 0;
#X connect 30 0 35 0;
#X connect 31 0 35 0;
#X connect 32 0 35 0;
#X connect 33 0 35 0;
#X connect 34 0 35 0;
#X connect 35 0 8 0;
#X connect 36 0 62 0;
#X connect 37 0 36 0;
#X connect 38 0 62 0;
#X connect 43 0 55 0;
#X connect 44 0 45 0;
#X connect 45 0 46 0;
#X connect 46 0 47 0;
#X connect 49 0 54 0;
#X connect 49 1 50 0;
#X connect 49 2 56 0;
#X connect 50 0 52 0;
#X connect 50 0 51 0;
#X connect 50 1 53 0;
#X connect 52 0 43 0;
#X connect 55 0 44 0;
#X connect 56 0 57 0;
#X connect 57 0 58 0;
#X connect 57 0 60 0;
#X connect 57 1 59 0;
#X connect 63 0 49 0;
#X connect 64 0 102 0;
#X connect 65 0 66 0;
#X connect 66 0 73 0;
#X connect 66 1 84 0;
#X connect 66 2 88 0;
#X connect 66 3 92 0;
#X connect 66 4 96 0;
#X connect 67 0 72 0;
#X connect 68 0 72 0;
#X connect 69 0 72 0;
#X connect 70 0 72 0;
#X connect 71 0 72 0;
#X connect 72 0 48 0;
#X connect 72 0 48 1;
#X connect 72 0 79 0;
#X connect 73 0 80 0;
#X connect 73 0 108 0;
#X connect 73 0 109 0;
#X connect 74 0 67 0;
#X connect 75 0 68 0;
#X connect 76 0 69 0;
#X connect 77 0 70 0;
#X connect 78 0 71 0;
#X connect 79 0 83 0;
#X connect 80 0 81 0;
#X connect 80 1 82 0;
#X connect 81 0 107 0;
#X connect 82 0 107 0;
#X connect 83 0 48 0;
#X connect 83 1 48 1;
#X connect 84 0 85 0;
#X connect 84 0 109 0;
#X connect 85 0 86 0;
#X connect 85 1 87 0;
#X connect 86 0 106 0;
#X connect 87 0 106 0;
#X connect 88 0 89 0;
#X connect 88 0 109 0;
#X connect 89 0 90 0;
#X connect 89 1 91 0;
#X connect 90 0 105 0;
#X connect 91 0 105 0;
#X connect 92 0 93 0;
#X connect 92 0 109 0;
#X connect 93 0 94 0;
#X connect 93 1 95 0;
#X connect 94 0 104 0;
#X connect 95 0 104 0;
#X connect 96 0 97 0;
#X connect 96 0 109 0;
#X connect 97 0 98 0;
#X connect 97 1 99 0;
#X connect 98 0 103 0;
#X connect 99 0 103 0;
#X connect 101 0 102 1;
#X connect 101 0 100 0;
#X connect 102 0 65 0;
#X connect 103 0 71 1;
#X connect 104 0 70 1;
#X connect 105 0 69 1;
#X connect 106 0 68 1;
#X connect 107 0 67 1;
#X connect 109 0 110 0;
#X connect 110 0 111 0;
#X connect 112 0 111 0;
#X connect 114 0 62 0;
#X connect 115 0 114 0;
#X connect 116 0 62 0;
#X connect 117 0 116 0;
#X connect 118 0 124 0;
#X connect 119 0 120 0;
#X connect 119 1 121 0;
#X connect 119 1 129 0;
#X connect 120 0 122 0;
#X connect 121 0 117 0;
#X connect 122 0 117 0;
#X connect 123 0 119 0;
#X connect 124 0 119 0;
#X connect 125 0 126 0;
#X connect 126 0 132 0;
#X connect 126 1 127 0;
#X connect 127 0 134 0;
#X connect 129 0 130 0;
#X connect 130 0 135 0;
#X connect 130 0 139 0;
#X connect 132 0 128 0;
#X connect 135 0 136 0;
#X connect 135 1 133 0;
#X connect 135 2 131 0;
#X connect 136 0 134 0;
#X connect 137 0 129 0;
#X connect 138 0 135 0;
#X restore 163 118 pd tests/set_address;
#X obj 24 36 table lidar_zeros 5;
#X obj 24 56 table lidar_ons 5;
#N canvas 142 161 471 582 process 0;
#X obj 18 66 route 10;
#X obj 18 87 unpack f f f f f f f f f f, f 35;
#X obj 18 113 * 255;
#X obj 18 134 +;
#X obj 63 112 * 255;
#X obj 63 133 +;
#X obj 111 114 * 255;
#X obj 111 135 +;
#X obj 156 113 * 255;
#X obj 156 134 +;
#X obj 202 110 * 255;
#X obj 202 131 +;
#X obj 18 195 pack f f f f f, f 31;
#X obj 84 259 array set lidar_vals;
#X obj 18 44 fruit/receive templar1;
#X obj 45 239 t a b a;
#X obj 64 280 array get lidar_zeros;
#X obj 45 327 unpack f f f f f, f 24;
#X obj 45 349 -;
#X obj 64 301 unpack f f f f f, f 24;
#X obj 80 348 -;
#X obj 117 349 -;
#X obj 150 351 -;
#X obj 188 351 -;
#X obj 45 437 pack f f f f f, f 24;
#X obj 45 391 -;
#X obj 45 412 > 0;
#X obj 80 390 -;
#X obj 80 411 > 0;
#X obj 118 392 -;
#X obj 118 413 > 0;
#X obj 153 392 -;
#X obj 153 413 > 0;
#X obj 189 394 -;
#X obj 189 415 > 0;
#X obj 45 462 array set lidar_ons;
#X obj 18 218 t b a;
#X obj 18 488 s lidars_updated;
#X obj 18 173 movavg 10;
#X obj 63 154 movavg 10;
#X obj 110 174 movavg 10;
#X obj 155 154 movavg 10;
#X obj 201 172 movavg 10;
#X obj 261 69 f;
#X msg 261 44 4;
#X floatatom 244 377 5 0 0 0 - - -;
#X obj 261 22 loadbang;
#X obj 197 492 i;
#X obj 197 513 change;
#X obj 247 493 i;
#X obj 247 514 change;
#X obj 297 495 i;
#X obj 297 516 change;
#X obj 347 496 i;
#X obj 347 517 change;
#X obj 398 496 i;
#X obj 398 517 change;
#X obj 197 534 s \$0-d1;
#X obj 247 535 s \$0-d2;
#X obj 297 537 s \$0-d3;
#X obj 347 538 s \$0-d4;
#X obj 398 538 s \$0-d5;
#X obj 244 349 i;
#X obj 244 327 r lidar_threshold-snd;
#X floatatom 320 105 8 0 0 0 - - -;
#X obj 45 370 * -1;
#X obj 80 369 * -1;
#X obj 118 371 * -1;
#X obj 153 371 * -1;
#X obj 189 373 * -1;
#X connect 0 0 1 0;
#X connect 1 0 2 0;
#X connect 1 1 3 1;
#X connect 1 2 4 0;
#X connect 1 3 5 1;
#X connect 1 4 6 0;
#X connect 1 5 7 1;
#X connect 1 6 8 0;
#X connect 1 7 9 1;
#X connect 1 8 10 0;
#X connect 1 9 11 1;
#X connect 2 0 3 0;
#X connect 3 0 38 0;
#X connect 4 0 5 0;
#X connect 5 0 39 0;
#X connect 6 0 7 0;
#X connect 7 0 40 0;
#X connect 8 0 9 0;
#X connect 9 0 41 0;
#X connect 10 0 11 0;
#X connect 11 0 42 0;
#X connect 12 0 36 0;
#X connect 14 0 0 0;
#X connect 15 0 17 0;
#X connect 15 1 16 0;
#X connect 15 2 13 0;
#X connect 16 0 19 0;
#X connect 17 0 18 0;
#X connect 17 1 20 0;
#X connect 17 2 21 0;
#X connect 17 3 22 0;
#X connect 17 4 23 0;
#X connect 18 0 65 0;
#X connect 19 0 18 1;
#X connect 19 1 20 1;
#X connect 19 2 21 1;
#X connect 19 3 22 1;
#X connect 19 4 23 1;
#X connect 20 0 66 0;
#X connect 21 0 67 0;
#X connect 22 0 68 0;
#X connect 23 0 69 0;
#X connect 24 0 35 0;
#X connect 25 0 26 0;
#X connect 26 0 24 0;
#X connect 27 0 28 0;
#X connect 28 0 24 1;
#X connect 29 0 30 0;
#X connect 30 0 24 2;
#X connect 31 0 32 0;
#X connect 32 0 24 3;
#X connect 33 0 34 0;
#X connect 34 0 24 4;
#X connect 36 0 37 0;
#X connect 36 1 15 0;
#X connect 38 0 12 0;
#X connect 39 0 12 1;
#X connect 40 0 12 2;
#X connect 41 0 12 3;
#X connect 42 0 12 4;
#X connect 43 0 38 1;
#X connect 43 0 42 1;
#X connect 43 0 41 1;
#X connect 43 0 40 1;
#X connect 43 0 39 1;
#X connect 44 0 43 0;
#X connect 46 0 44 0;
#X connect 47 0 48 0;
#X connect 48 0 57 0;
#X connect 49 0 50 0;
#X connect 50 0 58 0;
#X connect 51 0 52 0;
#X connect 52 0 59 0;
#X connect 53 0 54 0;
#X connect 54 0 60 0;
#X connect 55 0 56 0;
#X connect 56 0 61 0;
#X connect 62 0 33 1;
#X connect 62 0 31 1;
#X connect 62 0 29 1;
#X connect 62 0 27 1;
#X connect 62 0 25 1;
#X connect 62 0 45 0;
#X connect 63 0 62 0;
#X connect 64 0 38 0;
#X connect 65 0 25 0;
#X connect 65 0 47 0;
#X connect 66 0 27 0;
#X connect 66 0 49 0;
#X connect 67 0 29 0;
#X connect 67 0 51 0;
#X connect 68 0 31 0;
#X connect 68 0 53 0;
#X connect 69 0 33 0;
#X connect 69 0 55 0;
#X restore 24 109 pd process;
#N canvas 675 138 544 517 monitor_distance 0;
#X obj 20 108 array get lidar_vals;
#X msg 20 85 0;
#X obj 20 62 metro 200;
#X obj 20 41 tgl 15 0 empty empty empty 17 7 0 10 -262144 -1 -1 1 1
;
#X obj 20 129 unpack f f f f f, f 34;
#X obj 20 16 loadbang;
#X obj 20 150 i;
#X obj 20 171 change;
#X obj 20 192 s \$0-v1;
#X obj 70 151 i;
#X obj 70 172 change;
#X obj 120 153 i;
#X obj 120 174 change;
#X obj 170 154 i;
#X obj 170 175 change;
#X obj 221 154 i;
#X obj 221 175 change;
#X obj 70 193 s \$0-v2;
#X obj 120 195 s \$0-v3;
#X obj 170 196 s \$0-v4;
#X obj 221 196 s \$0-v5;
#X obj 17 232 r lidars_updated;
#X obj 17 275 array get lidar_ons;
#X obj 17 296 unpack f f f f f, f 65;
#X obj 17 317 change;
#X obj 17 383 s \$0-d1;
#X obj 17 338 * 15;
#X msg 17 361 color \$1 22 22;
#X obj 17 254 spigot 1;
#X obj 113 317 change;
#X obj 113 338 * 15;
#X msg 113 361 color \$1 22 22;
#X obj 210 317 change;
#X obj 210 338 * 15;
#X msg 210 361 color \$1 22 22;
#X obj 307 317 change;
#X obj 307 338 * 15;
#X msg 307 361 color \$1 22 22;
#X obj 405 317 change;
#X obj 405 338 * 15;
#X msg 405 361 color \$1 22 22;
#X obj 113 383 s \$0-d2;
#X obj 210 383 s \$0-d3;
#X obj 307 383 s \$0-d4;
#X obj 405 383 s \$0-d5;
#X obj 54 434 s t1-rcv;
#X obj 147 434 s t2-rcv;
#X obj 248 435 s t3-rcv;
#X obj 344 434 s t4-rcv;
#X obj 442 434 s t5-rcv;
#X obj 377 45 b;
#X obj 377 66 del 20000;
#X obj 377 87 s LIDAR_POWEROFF;
#X connect 0 0 4 0;
#X connect 1 0 0 0;
#X connect 2 0 1 0;
#X connect 3 0 2 0;
#X connect 4 0 6 0;
#X connect 4 1 9 0;
#X connect 4 2 11 0;
#X connect 4 3 13 0;
#X connect 4 4 15 0;
#X connect 5 0 3 0;
#X connect 6 0 7 0;
#X connect 7 0 8 0;
#X connect 7 0 50 0;
#X connect 9 0 10 0;
#X connect 10 0 17 0;
#X connect 10 0 50 0;
#X connect 11 0 12 0;
#X connect 12 0 18 0;
#X connect 12 0 50 0;
#X connect 13 0 14 0;
#X connect 14 0 19 0;
#X connect 14 0 50 0;
#X connect 15 0 16 0;
#X connect 16 0 20 0;
#X connect 16 0 50 0;
#X connect 21 0 28 0;
#X connect 22 0 23 0;
#X connect 23 0 24 0;
#X connect 23 1 29 0;
#X connect 23 2 32 0;
#X connect 23 3 35 0;
#X connect 23 4 38 0;
#X connect 24 0 26 0;
#X connect 24 0 45 0;
#X connect 26 0 27 0;
#X connect 27 0 25 0;
#X connect 28 0 22 0;
#X connect 29 0 30 0;
#X connect 29 0 46 0;
#X connect 30 0 31 0;
#X connect 31 0 41 0;
#X connect 32 0 33 0;
#X connect 32 0 47 0;
#X connect 33 0 34 0;
#X connect 34 0 42 0;
#X connect 35 0 36 0;
#X connect 35 0 48 0;
#X connect 36 0 37 0;
#X connect 37 0 43 0;
#X connect 38 0 39 0;
#X connect 38 0 49 0;
#X connect 39 0 40 0;
#X connect 40 0 44 0;
#X connect 50 0 51 0;
#X connect 51 0 52 0;
#X restore 24 173 pd monitor_distance;
#N canvas 180 180 490 330 minmax_tests 0;
#X obj 49 115 array get lidar_vals;
#X msg 49 92 0;
#X obj 49 48 tgl 15 0 empty empty empty 17 7 0 10 -262144 -1 -1 0 1
;
#X obj 49 136 unpack f f f f f, f 49;
#X obj 121 159 ./minmax;
#X obj 266 159 ./minmax;
#X obj 49 159 ./minmax;
#X obj 193 158 ./minmax;
#X obj 340 161 ./minmax;
#X obj 49 69 metro 50;
#X obj 193 111 bng 15 250 50 0 minmax_reset empty minmax_reset 17 7
0 10 -260097 -1 -1;
#X connect 0 0 3 0;
#X connect 1 0 0 0;
#X connect 2 0 9 0;
#X connect 3 0 6 0;
#X connect 3 1 4 0;
#X connect 3 2 7 0;
#X connect 3 3 5 0;
#X connect 3 4 8 0;
#X connect 9 0 1 0;
#X restore 163 140 pd minmax_tests;
#N canvas 180 180 507 337 zeros 0;
#X obj 64 131 array get lidar_vals;
#X msg 64 103 0;
#X obj 64 159 array set lidar_zeros;
#X obj 163 196 unpack f f f f f, f 34;
#X obj 163 216 i;
#X obj 163 237 change;
#X obj 213 216 i;
#X obj 213 237 change;
#X obj 263 216 i;
#X obj 263 237 change;
#X obj 313 217 i;
#X obj 313 238 change;
#X obj 364 217 i;
#X obj 364 238 change;
#X obj 163 258 s \$0-z1;
#X obj 213 258 s \$0-z2;
#X obj 263 258 s \$0-z3;
#X obj 313 259 s \$0-z4;
#X obj 364 259 s \$0-z5;
#X obj 64 78 r \$0-setzero;
#X obj 36 164 b;
#X obj 36 185 del 1000;
#X obj 36 277 s lidar_zeros;
#X obj 36 229 pdcontrol;
#X msg 36 206 dir;
#X msg 36 254 write \$1/zeros.txt;
#X obj 365 145 s lidar_zeros;
#X obj 365 97 pdcontrol;
#X msg 365 74 dir;
#X obj 230 29 loadbang;
#X msg 365 122 read \$1/zeros.txt;
#X obj 230 54 t b b, f 23;
#X msg 230 123 0;
#X obj 230 146 array get lidar_zeros;
#X connect 0 0 2 0;
#X connect 0 0 3 0;
#X connect 1 0 0 0;
#X connect 1 0 20 0;
#X connect 3 0 4 0;
#X connect 3 1 6 0;
#X connect 3 2 8 0;
#X connect 3 3 10 0;
#X connect 3 4 12 0;
#X connect 4 0 5 0;
#X connect 5 0 14 0;
#X connect 6 0 7 0;
#X connect 7 0 15 0;
#X connect 8 0 9 0;
#X connect 9 0 16 0;
#X connect 10 0 11 0;
#X connect 11 0 17 0;
#X connect 12 0 13 0;
#X connect 13 0 18 0;
#X connect 19 0 1 0;
#X connect 20 0 21 0;
#X connect 21 0 24 0;
#X connect 23 0 25 0;
#X connect 24 0 23 0;
#X connect 25 0 22 0;
#X connect 27 0 30 0;
#X connect 28 0 27 0;
#X connect 29 0 31 0;
#X connect 30 0 26 0;
#X connect 31 0 32 0;
#X connect 31 1 28 0;
#X connect 32 0 33 0;
#X connect 33 0 3 0;
#X restore 24 130 pd zeros;
#N canvas 180 173 449 570 threshold 0;
#X msg 58 103 0 \$1;
#X obj 58 60 i;
#X obj 58 38 r lidar_threshold-snd;
#X obj 58 80 change;
#X obj 187 62 del 1000;
#X obj 187 106 pdcontrol;
#X msg 187 83 dir;
#X msg 187 131 write \$1/threshold.txt;
#X obj 50 224 loadbang;
#X msg 113 270 5;
#X obj 112 523 s lidar_threshold-rcv;
#X msg 26 157 label threshold:\$1;
#X obj 26 182 s lidar_threshold-rcv;
#X msg 97 315 stop;
#X obj 81 367 pdcontrol;
#X msg 81 344 dir;
#X msg 81 392 read \$1/threshold.txt;
#X obj 58 124 s lidar_threstab;
#X obj 187 154 s lidar_threstab;
#X obj 81 415 s lidar_threstab;
#X obj 65 459 tabread lidar_threstab;
#X msg 65 437 0;
#X obj 50 247 t b b b b b;
#X connect 0 0 17 0;
#X connect 1 0 3 0;
#X connect 2 0 1 0;
#X connect 3 0 0 0;
#X connect 3 0 4 0;
#X connect 3 0 11 0;
#X connect 4 0 6 0;
#X connect 5 0 7 0;
#X connect 6 0 5 0;
#X connect 7 0 18 0;
#X connect 8 0 22 0;
#X connect 9 0 10 0;
#X connect 11 0 12 0;
#X connect 13 0 4 0;
#X connect 14 0 16 0;
#X connect 15 0 14 0;
#X connect 16 0 19 0;
#X connect 20 0 10 0;
#X connect 21 0 20 0;
#X connect 22 0 13 0;
#X connect 22 1 21 0;
#X connect 22 2 15 0;
#X connect 22 3 13 0;
#X connect 22 4 9 0;
#X restore 24 151 pd threshold;
#X obj 25 75 table lidar_threstab 1;
#X restore 17 210 pd stuff;
#X obj 16 10 cnv 15 150 40 empty empty Templar 10 20 2 30 -233017 -66577
0;
#X obj 18 241 send_OSC;
