#N canvas 124 124 450 300 10;
#X obj 140 7 inlet;
#X obj 140 31 t f f;
#X obj 208 62 min;
#X obj 244 63 f;
#X obj 176 61 f;
#X obj 140 60 max;
#X floatatom 135 116 5 0 0 0 max - - 0;
#X floatatom 134 135 5 0 0 0 min - - 0;
#X obj 109 169 bng 15 250 50 0 empty empty reset 17 10 0 10 #fcfcfc
#000000 #000000;
#X msg 203 22 0;
#X msg 257 22 1000;
#X obj 322 64 loadbang;
#X floatatom 134 152 5 0 0 0 delta - - 0;
#X obj 29 151 -;
#X obj 314 30 r minmax_reset;
#X obj 137 88 change;
#X obj 208 84 change;
#X obj 29 171 change;
#X connect 0 0 1 0;
#X connect 1 0 5 0;
#X connect 1 1 2 0;
#X connect 2 0 3 0;
#X connect 2 0 13 1;
#X connect 2 0 16 0;
#X connect 3 0 2 1;
#X connect 4 0 5 1;
#X connect 5 0 4 0;
#X connect 5 0 13 0;
#X connect 5 0 15 0;
#X connect 8 0 9 0;
#X connect 8 0 10 0;
#X connect 9 0 4 0;
#X connect 10 0 3 0;
#X connect 11 0 8 0;
#X connect 13 0 17 0;
#X connect 14 0 8 0;
#X connect 15 0 6 0;
#X connect 16 0 7 0;
#X connect 17 0 12 0;
#X coords 0 -1 1 1 68 88 1 100 100;
