#N canvas 622 155 566 301 12;
#X obj 59 16 table \$0-t \$1;
#X obj 61 44 inlet;
#X obj 246 203 i;
#X obj 276 204 + 1;
#X obj 306 204 mod \$1;
#X obj 61 178 array sum \$0-t;
#X obj 61 133 t b f;
#X obj 214 178 t f b;
#X obj 214 231 array set \$0-t;
#X obj 61 232 outlet;
#X obj 61 205 / \$1;
#X obj 226 111 inlet;
#X obj 61 73 moses 800;
#X obj 359 91 > 900;
#X obj 359 115 change;
#X obj 359 139 sel 0 1;
#X obj 382 188 del 200;
#X msg 359 163 stop;
#X obj 382 213 s LIDAR_POWEROFF;
#X obj 431 126 r LIDAR_POWEROFF;
#X msg 431 150 stop;
#X connect 1 0 12 0;
#X connect 1 0 13 0;
#X connect 2 0 3 0;
#X connect 2 0 8 1;
#X connect 3 0 4 0;
#X connect 4 0 2 1;
#X connect 5 0 10 0;
#X connect 6 0 5 0;
#X connect 6 1 7 0;
#X connect 7 0 8 0;
#X connect 7 1 2 0;
#X connect 10 0 9 0;
#X connect 11 0 4 1;
#X connect 11 0 10 1;
#X connect 11 0 5 1;
#X connect 12 0 6 0;
#X connect 13 0 14 0;
#X connect 14 0 15 0;
#X connect 15 0 17 0;
#X connect 15 1 16 0;
#X connect 16 0 18 0;
#X connect 17 0 16 0;
#X connect 19 0 20 0;
#X connect 20 0 16 0;
