#N canvas 100 272 990 444 10;
#X obj 604 214 r lidars_updated;
#X obj 604 257 array get lidar_ons;
#X obj 22 330 netsend -b -u;
#X obj 22 229 list prepend send;
#X obj 22 253 list trim;
#X obj 178 238 loadbang;
#X obj 22 354 tgl 15 0 empty empty connected 17 7 0 10 #fcfcfc #000000
#000000 0 1;
#X msg 177 298 disconnect;
#X msg 178 262 connect localhost 8000;
#X obj 604 278 unpack f f f f f, f 67;
#X obj 604 299 change;
#X obj 703 300 change;
#X obj 803 301 change;
#X obj 903 302 change;
#X obj 1003 302 change;
#X obj 604 176 list prepend send;
#X obj 604 84 unpack f f f f f, f 67;
#X obj 604 105 change;
#X obj 604 128 oscformat /btn1;
#X obj 703 106 change;
#X obj 803 107 change;
#X obj 903 108 change;
#X obj 1003 108 change;
#X obj 703 129 oscformat /btn2;
#X obj 803 130 oscformat /btn3;
#X obj 903 131 oscformat /btn4;
#X obj 1003 131 oscformat /btn5;
#X obj 604 389 oscformat -f i /btn;
#X obj 604 320 sel 1;
#X msg 604 341 1;
#X obj 703 320 sel 1;
#X obj 803 322 sel 1;
#X obj 902 322 sel 1;
#X obj 1003 322 sel 1;
#X msg 703 341 2;
#X msg 803 343 3;
#X msg 902 343 4;
#X msg 1003 343 5;
#X obj 22 18 r t1-snd;
#X obj 114 18 r t2-snd;
#X obj 215 19 r t3-snd;
#X obj 311 18 r t4-snd;
#X obj 410 17 r t5-snd;
#X msg 22 39 1 \$1;
#X msg 114 39 2 \$1;
#X msg 215 41 3 \$1;
#X msg 311 42 4 \$1;
#X msg 409 38 5 \$1;
#X obj 22 127 t a;
#X msg 22 148 \$2 \$1;
#X obj 22 169 route 1 0, f 48;
#X obj 22 195 oscformat -f i /btn_on;
#X obj 164 194 oscformat -f i /btn_off;
#X obj 604 236 spigot 0;
#X connect 0 0 53 0;
#X connect 1 0 9 0;
#X connect 2 0 6 0;
#X connect 3 0 4 0;
#X connect 4 0 2 0;
#X connect 5 0 8 0;
#X connect 7 0 2 0;
#X connect 8 0 2 0;
#X connect 9 0 10 0;
#X connect 9 1 11 0;
#X connect 9 2 12 0;
#X connect 9 3 13 0;
#X connect 9 4 14 0;
#X connect 10 0 28 0;
#X connect 11 0 30 0;
#X connect 12 0 31 0;
#X connect 13 0 32 0;
#X connect 14 0 33 0;
#X connect 16 0 17 0;
#X connect 16 1 19 0;
#X connect 16 2 20 0;
#X connect 16 3 21 0;
#X connect 16 4 22 0;
#X connect 17 0 18 0;
#X connect 18 0 15 0;
#X connect 19 0 23 0;
#X connect 20 0 24 0;
#X connect 21 0 25 0;
#X connect 22 0 26 0;
#X connect 23 0 15 0;
#X connect 24 0 15 0;
#X connect 25 0 15 0;
#X connect 26 0 15 0;
#X connect 28 0 29 0;
#X connect 29 0 27 0;
#X connect 30 0 34 0;
#X connect 31 0 35 0;
#X connect 32 0 36 0;
#X connect 33 0 37 0;
#X connect 34 0 27 0;
#X connect 35 0 27 0;
#X connect 36 0 27 0;
#X connect 37 0 27 0;
#X connect 38 0 43 0;
#X connect 39 0 44 0;
#X connect 40 0 45 0;
#X connect 41 0 46 0;
#X connect 42 0 47 0;
#X connect 43 0 48 0;
#X connect 44 0 48 0;
#X connect 45 0 48 0;
#X connect 46 0 48 0;
#X connect 47 0 48 0;
#X connect 48 0 49 0;
#X connect 49 0 50 0;
#X connect 50 0 51 0;
#X connect 50 1 52 0;
#X connect 51 0 3 0;
#X connect 52 0 3 0;
#X connect 53 0 1 0;
