#N canvas 124 124 900 429 10;
#X obj 21 24 r lidars_updated;
#X obj 21 67 array get lidar_ons;
#X obj 21 46 spigot 1;
#X obj 21 330 netsend -b -u;
#X obj 21 229 list prepend send;
#X obj 21 253 list trim;
#X obj 177 238 loadbang;
#X obj 21 354 tgl 15 0 empty empty connected 17 7 0 10 #fcfcfc #000000
#000000 0 1;
#X msg 176 298 disconnect;
#X msg 177 262 connect localhost 8000;
#X obj 21 88 unpack f f f f f, f 67;
#X obj 21 109 change;
#X obj 120 110 change;
#X obj 220 111 change;
#X obj 320 112 change;
#X obj 420 112 change;
#X obj 604 176 list prepend send;
#X obj 604 84 unpack f f f f f, f 67;
#X obj 604 105 change;
#X obj 604 128 oscformat /btn1;
#X obj 703 106 change;
#X obj 803 107 change;
#X obj 903 108 change;
#X obj 1003 108 change;
#X obj 703 129 oscformat /btn2;
#X obj 803 130 oscformat /btn3;
#X obj 903 131 oscformat /btn4;
#X obj 1003 131 oscformat /btn5;
#X obj 21 199 oscformat -f i /btn;
#X obj 21 130 sel 1;
#X msg 21 151 1;
#X obj 120 130 sel 1;
#X obj 220 132 sel 1;
#X obj 319 132 sel 1;
#X obj 420 132 sel 1;
#X msg 120 151 2;
#X msg 220 153 3;
#X msg 319 153 4;
#X msg 420 153 5;
#X connect 0 0 2 0;
#X connect 1 0 10 0;
#X connect 2 0 1 0;
#X connect 3 0 7 0;
#X connect 4 0 5 0;
#X connect 5 0 3 0;
#X connect 6 0 9 0;
#X connect 8 0 3 0;
#X connect 9 0 3 0;
#X connect 10 0 11 0;
#X connect 10 1 12 0;
#X connect 10 2 13 0;
#X connect 10 3 14 0;
#X connect 10 4 15 0;
#X connect 11 0 29 0;
#X connect 12 0 31 0;
#X connect 13 0 32 0;
#X connect 14 0 33 0;
#X connect 15 0 34 0;
#X connect 17 0 18 0;
#X connect 17 1 20 0;
#X connect 17 2 21 0;
#X connect 17 3 22 0;
#X connect 17 4 23 0;
#X connect 18 0 19 0;
#X connect 19 0 16 0;
#X connect 20 0 24 0;
#X connect 21 0 25 0;
#X connect 22 0 26 0;
#X connect 23 0 27 0;
#X connect 24 0 16 0;
#X connect 25 0 16 0;
#X connect 26 0 16 0;
#X connect 27 0 16 0;
#X connect 28 0 4 0;
#X connect 29 0 30 0;
#X connect 30 0 28 0;
#X connect 31 0 35 0;
#X connect 32 0 36 0;
#X connect 33 0 37 0;
#X connect 34 0 38 0;
#X connect 35 0 28 0;
#X connect 36 0 28 0;
#X connect 37 0 28 0;
#X connect 38 0 28 0;
