#N canvas 789 55 388 251 12;
#X obj 40 77 oscparse;
#X obj 40 181 bng 30 250 50 0 empty empty 1 10 15 0 20 #fc8000 #000000
#000000;
#X obj 40 105 list trim;
#X text 38 23 OSC receiver for testing puissance4trigger;
#X obj 40 129 route btn;
#X obj 91 181 bng 30 250 50 0 empty empty 2 10 15 0 20 #fc8000 #000000
#000000;
#X obj 142 179 bng 30 250 50 0 empty empty 3 10 15 0 20 #fc8000 #000000
#000000;
#X obj 193 179 bng 30 250 50 0 empty empty 4 10 15 0 20 #fc8000 #000000
#000000;
#X obj 244 178 bng 30 250 50 0 empty empty 5 10 15 0 20 #fc8000 #000000
#000000;
#X obj 40 155 sel 1 2 3 4 5, f 37;
#X obj 40 53 netreceive -u -b 8000;
#X connect 0 0 2 0;
#X connect 2 0 4 0;
#X connect 4 0 9 0;
#X connect 9 0 1 0;
#X connect 9 1 5 0;
#X connect 9 2 6 0;
#X connect 9 3 7 0;
#X connect 9 4 8 0;
#X connect 10 0 0 0;
