#N canvas 891 309 561 499 10;
#X obj 21 394 netsend -b -u;
#X obj 21 243 list prepend send;
#X obj 21 267 list trim;
#X obj 39 319 loadbang;
#X obj 21 418 tgl 15 0 empty empty connected 17 7 0 10 #fcfcfc #000000 #000000 0 1;
#X msg 39 366 disconnect;
#X msg 39 343 connect localhost 8000;
#X obj 21 13 r \$1-buttons;
#X msg 21 147 \$2 \$1;
#X obj 21 170 route 1 0, f 47;
#X obj 21 195 oscformat -f i /btn_on;
#X obj 160 196 oscformat -f i /btn_off;
#X obj 366 400 netsend -b -u;
#X obj 385 323 loadbang;
#X obj 366 424 tgl 15 0 empty empty connected 17 7 0 10 #fcfcfc #000000 #000000 0 1;
#X msg 385 371 disconnect;
#X msg 385 347 connect localhost 8010;
#X msg 366 165 set btn\$1 \, \$2;
#X obj 21 35 unpack f f;
#X obj 21 58 + 1;
#X obj 21 81 pack f f, f 10;
#X text 88 58 0->1 \, 1->2 etc...;
#X obj 366 188 oscformat -f i btn1;
#X obj 366 248 list prepend send;
#X obj 366 272 list trim;
#X obj 21 104 t a a, f 58;
#X text 31 124 Vers Unity;
#X text 381 128 Vers MadMapper;
#X connect 0 0 4 0;
#X connect 1 0 2 0;
#X connect 2 0 0 0;
#X connect 3 0 6 0;
#X connect 5 0 0 0;
#X connect 6 0 0 0;
#X connect 7 0 18 0;
#X connect 8 0 9 0;
#X connect 9 0 10 0;
#X connect 9 1 11 0;
#X connect 10 0 1 0;
#X connect 11 0 1 0;
#X connect 12 0 14 0;
#X connect 13 0 16 0;
#X connect 15 0 12 0;
#X connect 16 0 12 0;
#X connect 17 0 22 0;
#X connect 18 0 19 0;
#X connect 18 1 20 1;
#X connect 19 0 20 0;
#X connect 20 0 25 0;
#X connect 22 0 23 0;
#X connect 23 0 24 0;
#X connect 24 0 12 0;
#X connect 25 0 8 0;
#X connect 25 1 17 0;
