#N canvas 244 71 671 585 12;
#X declare -path Fraise;
#X obj 20 18 declare -path Fraise;
#X obj 25 62 pied/pied 1;
#X obj 24 194 fruit/receive fruit1;
#X obj 193 204 fruit/send fruit1;
#X msg 309 177 Ehello;
#X obj 70 244 print from_fruit1;
#X obj 383 130 send_OSC \$0;
#X obj 24 139 fruit/fruit 1 fruit1 0 fw_picoforest_buttons;
#X obj 24 219 route S;
#X obj 24 379 s \$0-buttons;
#X obj 24 272 route 0 1 2 3 4 5 6 7 8 9 10 11 12 13 14 15, f 87;
#X obj 24 298 tgl 20 0 empty empty empty 0 -10 0 12 #fcfcc8 #000000 #000000 0 1;
#X obj 63 298 tgl 20 0 empty empty empty 0 -10 0 12 #fcfcc8 #000000 #000000 0 1;
#X obj 100 298 tgl 20 0 empty empty empty 0 -10 0 12 #fcfcc8 #000000 #000000 0 1;
#X obj 136 298 tgl 20 0 empty empty empty 0 -10 0 12 #fcfcc8 #000000 #000000 0 1;
#X obj 175 298 tgl 20 0 empty empty empty 0 -10 0 12 #fcfcc8 #000000 #000000 0 1;
#X obj 212 298 tgl 20 0 empty empty empty 0 -10 0 12 #fcfcc8 #000000 #000000 0 1;
#X obj 249 298 tgl 20 0 empty empty empty 0 -10 0 12 #fcfcc8 #000000 #000000 0 1;
#X obj 288 298 tgl 20 0 empty empty empty 0 -10 0 12 #fcfcc8 #000000 #000000 0 1;
#X obj 325 298 tgl 20 0 empty empty empty 0 -10 0 12 #fcfcc8 #000000 #000000 0 1;
#X obj 361 298 tgl 20 0 empty empty empty 0 -10 0 12 #fcfcc8 #000000 #000000 0 1;
#X obj 400 298 tgl 20 0 empty empty empty 0 -10 0 12 #fcfcc8 #000000 #000000 0 1;
#X obj 437 298 tgl 20 0 empty empty empty 0 -10 0 12 #fcfcc8 #000000 #000000 0 1;
#X obj 481 298 tgl 20 0 empty empty empty 0 -10 0 12 #fcfcc8 #000000 #000000 0 1;
#X obj 517 298 tgl 20 0 empty empty empty 0 -10 0 12 #fcfcc8 #000000 #000000 0 1;
#X obj 556 298 tgl 20 0 empty empty empty 0 -10 0 12 #fcfcc8 #000000 #000000 0 1;
#X obj 593 298 tgl 20 0 empty empty empty 0 -10 0 12 #fcfcc8 #000000 #000000 0 1;
#X obj 25 424 noise~;
#X obj 25 449 *~;
#X obj 25 499 dac~;
#X obj 172 427 tgl 20 0 empty empty empty 0 -10 0 12 #fcfcfc #000000 #000000 0 1;
#X obj 172 458 switch~;
#X msg 24 323 0 \$1;
#X msg 63 323 1 \$1;
#X msg 100 323 2 \$1;
#X msg 136 323 3 \$1;
#X msg 175 323 4 \$1;
#X msg 212 323 5 \$1;
#X msg 249 323 6 \$1;
#X msg 288 323 7 \$1;
#X msg 325 323 8 \$1;
#X msg 361 323 9 \$1;
#X msg 400 323 10 \$1;
#X msg 437 323 11 \$1;
#X msg 481 323 12 \$1;
#X msg 517 323 13 \$1;
#X msg 556 323 14 \$1;
#X msg 593 323 15 \$1;
#X obj 73 423 r \$0-buttons;
#X msg 73 448 \$2;
#X obj 25 474 *~ 0.1;
#X connect 2 0 8 0;
#X connect 4 0 3 1;
#X connect 8 0 10 0;
#X connect 8 1 5 0;
#X connect 10 0 11 0;
#X connect 10 1 12 0;
#X connect 10 2 13 0;
#X connect 10 3 14 0;
#X connect 10 4 15 0;
#X connect 10 5 16 0;
#X connect 10 6 17 0;
#X connect 10 7 18 0;
#X connect 10 8 19 0;
#X connect 10 9 20 0;
#X connect 10 10 21 0;
#X connect 10 11 22 0;
#X connect 10 12 23 0;
#X connect 10 13 24 0;
#X connect 10 14 25 0;
#X connect 10 15 26 0;
#X connect 11 0 32 0;
#X connect 12 0 33 0;
#X connect 13 0 34 0;
#X connect 14 0 35 0;
#X connect 15 0 36 0;
#X connect 16 0 37 0;
#X connect 17 0 38 0;
#X connect 18 0 39 0;
#X connect 19 0 40 0;
#X connect 20 0 41 0;
#X connect 21 0 42 0;
#X connect 22 0 43 0;
#X connect 23 0 44 0;
#X connect 24 0 45 0;
#X connect 25 0 46 0;
#X connect 26 0 47 0;
#X connect 27 0 28 0;
#X connect 28 0 50 0;
#X connect 30 0 31 0;
#X connect 32 0 9 0;
#X connect 33 0 9 0;
#X connect 34 0 9 0;
#X connect 35 0 9 0;
#X connect 36 0 9 0;
#X connect 37 0 9 0;
#X connect 38 0 9 0;
#X connect 39 0 9 0;
#X connect 40 0 9 0;
#X connect 41 0 9 0;
#X connect 42 0 9 0;
#X connect 43 0 9 0;
#X connect 44 0 9 0;
#X connect 45 0 9 0;
#X connect 46 0 9 0;
#X connect 47 0 9 0;
#X connect 48 0 49 0;
#X connect 49 0 28 1;
#X connect 50 0 29 0;
#X connect 50 0 29 1;
